solid PassiveBracket_p2
facet normal -2.300844306894431e-31 6.21724893790087e-15 1.0
  outer loop
    vertex 3.552713678800501e-15 1.4210854715202004e-14 1.6093750000000013
    vertex 1.2500000000000018 0.25000000000001066 1.6093749999999996
    vertex 0.0 0.2500000000000142 1.6093749999999996
  endloop
endfacet
facet normal -2.300844306894431e-31 6.21724893790087e-15 1.0
  outer loop
    vertex 1.2500000000000018 0.25000000000001066 1.6093749999999996
    vertex 3.552713678800501e-15 1.4210854715202004e-14 1.6093750000000013
    vertex 1.2500000000000036 1.0658141036401503e-14 1.6093750000000013
  endloop
endfacet
facet normal 1.0 1.961394010171052e-15 3.0663556086503455e-16
  outer loop
    vertex 1.2500000000000036 0.0 -0.24999999999999845
    vertex 1.2500000000000036 0.0625000000000071 0.46594238281250444
    vertex 1.2500000000000036 1.0658141036401503e-14 1.6093750000000013
  endloop
endfacet
facet normal 1.0 1.961394010171052e-15 3.0663556086503455e-16
  outer loop
    vertex 1.2500000000000036 0.0625000000000071 0.46594238281250444
    vertex 1.2500000000000036 0.0 -0.24999999999999845
    vertex 1.2500000000000036 0.06462963585694048 0.44976619249359695
  endloop
endfacet
facet normal 1.0 1.961394010171052e-15 3.0663556086503455e-16
  outer loop
    vertex 1.2500000000000036 0.06462963585694048 0.44976619249359695
    vertex 1.2500000000000036 0.0 -0.24999999999999845
    vertex 1.2500000000000036 0.2500000000000018 -0.25000000000000067
  endloop
endfacet
facet normal 1.0 1.961394010171052e-15 3.0663556086503455e-16
  outer loop
    vertex 1.2500000000000036 0.06462963585694048 0.44976619249359695
    vertex 1.2500000000000036 0.2500000000000018 -0.25000000000000067
    vertex 1.2500000000000036 0.0708734122634791 0.43469238281250444
  endloop
endfacet
facet normal 1.0 1.961394010171052e-15 3.0663556086503455e-16
  outer loop
    vertex 1.2500000000000036 0.0708734122634791 0.43469238281250444
    vertex 1.2500000000000036 0.2500000000000018 -0.25000000000000067
    vertex 1.2500000000000036 0.08080582617584753 0.4217482089883453
  endloop
endfacet
facet normal 1.0 1.961394010171052e-15 3.0663556086503455e-16
  outer loop
    vertex 1.2500000000000036 0.08080582617584753 0.4217482089883453
    vertex 1.2500000000000036 0.2500000000000018 -0.25000000000000067
    vertex 1.2500000000000036 0.0937500000000071 0.4118157950759771
  endloop
endfacet
facet normal 1.0 1.961394010171052e-15 3.0663556086503455e-16
  outer loop
    vertex 1.2500000000000036 0.0937500000000071 0.4118157950759771
    vertex 1.2500000000000036 0.2500000000000018 -0.25000000000000067
    vertex 1.2500000000000036 0.10882380968110006 0.4055720186694376
  endloop
endfacet
facet normal 1.0 1.961394010171052e-15 3.0663556086503455e-16
  outer loop
    vertex 1.2500000000000036 0.10882380968110006 0.4055720186694376
    vertex 1.2500000000000036 0.2500000000000018 -0.25000000000000067
    vertex 1.2500000000000036 0.1250000000000071 0.40344238281250444
  endloop
endfacet
facet normal 1.0 1.961394010171052e-15 3.0663556086503455e-16
  outer loop
    vertex 1.2500000000000036 0.1250000000000071 0.40344238281250444
    vertex 1.2500000000000036 0.2500000000000018 -0.25000000000000067
    vertex 1.2500000000000036 0.14117619031891415 0.4055720186694376
  endloop
endfacet
facet normal 1.0 1.961394010171052e-15 3.0663556086503455e-16
  outer loop
    vertex 1.2500000000000036 0.14117619031891415 0.4055720186694376
    vertex 1.2500000000000036 0.2500000000000018 -0.25000000000000067
    vertex 1.2500000000000036 0.1562500000000071 0.4118157950759771
  endloop
endfacet
facet normal 1.0 1.961394010171052e-15 3.0663556086503455e-16
  outer loop
    vertex 1.2500000000000036 0.1562500000000071 0.4118157950759771
    vertex 1.2500000000000036 0.2500000000000018 -0.25000000000000067
    vertex 1.2500000000000036 0.16919417382416668 0.4217482089883453
  endloop
endfacet
facet normal 1.0 1.961394010171052e-15 3.0663556086503455e-16
  outer loop
    vertex 1.2500000000000036 0.16919417382416668 0.4217482089883453
    vertex 1.2500000000000036 0.2500000000000018 -0.25000000000000067
    vertex 1.2500000000000036 0.17912658773653511 0.43469238281250444
  endloop
endfacet
facet normal 1.0 1.961394010171052e-15 3.0663556086503455e-16
  outer loop
    vertex 1.2500000000000036 0.17912658773653511 0.43469238281250444
    vertex 1.2500000000000036 0.2500000000000018 -0.25000000000000067
    vertex 1.2500000000000036 0.18537036414307373 0.44976619249359695
  endloop
endfacet
facet normal 1.0 1.961394010171052e-15 3.0663556086503455e-16
  outer loop
    vertex 1.2500000000000036 0.18537036414307373 0.44976619249359695
    vertex 1.2500000000000036 0.2500000000000018 -0.25000000000000067
    vertex 1.2500000000000036 0.1875000000000071 0.46594238281250444
  endloop
endfacet
facet normal 1.0 1.961394010171052e-15 3.0663556086503455e-16
  outer loop
    vertex 1.2500000000000036 1.0658141036401503e-14 1.6093750000000013
    vertex 1.2500000000000036 0.06462963585694048 0.48211857313141193
    vertex 1.2500000000000018 0.25000000000001066 1.6093749999999996
  endloop
endfacet
facet normal 1.0 1.961394010171052e-15 3.0663556086503455e-16
  outer loop
    vertex 1.2500000000000036 0.06462963585694048 0.48211857313141193
    vertex 1.2500000000000036 1.0658141036401503e-14 1.6093750000000013
    vertex 1.2500000000000036 0.0625000000000071 0.46594238281250444
  endloop
endfacet
facet normal 1.0 1.961394010171052e-15 3.0663556086503455e-16
  outer loop
    vertex 1.2500000000000018 0.25000000000001066 1.6093749999999996
    vertex 1.2500000000000036 0.06462963585694048 0.48211857313141193
    vertex 1.2500000000000036 0.0708734122634791 0.49719238281250444
  endloop
endfacet
facet normal 1.0 1.961394010171052e-15 3.0663556086503455e-16
  outer loop
    vertex 1.2500000000000018 0.25000000000001066 1.6093749999999996
    vertex 1.2500000000000036 0.0708734122634791 0.49719238281250444
    vertex 1.2500000000000036 0.08080582617584753 0.5101365566366636
  endloop
endfacet
facet normal 1.0 1.961394010171052e-15 3.0663556086503455e-16
  outer loop
    vertex 1.2500000000000018 0.25000000000001066 1.6093749999999996
    vertex 1.2500000000000036 0.08080582617584753 0.5101365566366636
    vertex 1.2500000000000036 0.0937500000000071 0.5200689705490318
  endloop
endfacet
facet normal 1.0 1.961394010171052e-15 3.0663556086503455e-16
  outer loop
    vertex 1.2500000000000018 0.25000000000001066 1.6093749999999996
    vertex 1.2500000000000036 0.0937500000000071 0.5200689705490318
    vertex 1.2500000000000036 0.10882380968110006 0.5263127469555713
  endloop
endfacet
facet normal 1.0 1.961394010171052e-15 3.0663556086503455e-16
  outer loop
    vertex 1.2500000000000018 0.25000000000001066 1.6093749999999996
    vertex 1.2500000000000036 0.10882380968110006 0.5263127469555713
    vertex 1.2500000000000036 0.1250000000000071 0.5284423828125044
  endloop
endfacet
facet normal 1.0 1.961394010171052e-15 3.0663556086503455e-16
  outer loop
    vertex 1.2500000000000018 0.25000000000001066 1.6093749999999996
    vertex 1.2500000000000036 0.1250000000000071 0.5284423828125044
    vertex 1.2500000000000036 0.14117619031891415 0.5263127469555713
  endloop
endfacet
facet normal 1.0 1.961394010171052e-15 3.0663556086503455e-16
  outer loop
    vertex 1.2500000000000018 0.25000000000001066 1.6093749999999996
    vertex 1.2500000000000036 0.14117619031891415 0.5263127469555713
    vertex 1.2500000000000036 0.1562500000000071 0.5200689705490318
  endloop
endfacet
facet normal 1.0 1.961394010171052e-15 3.0663556086503455e-16
  outer loop
    vertex 1.2500000000000018 0.25000000000001066 1.6093749999999996
    vertex 1.2500000000000036 0.1562500000000071 0.5200689705490318
    vertex 1.2500000000000036 0.16919417382416668 0.5101365566366636
  endloop
endfacet
facet normal 1.0 1.961394010171052e-15 3.0663556086503455e-16
  outer loop
    vertex 1.2500000000000018 0.25000000000001066 1.6093749999999996
    vertex 1.2500000000000036 0.16919417382416668 0.5101365566366636
    vertex 1.2500000000000036 0.17912658773653511 0.49719238281250444
  endloop
endfacet
facet normal 1.0 1.961394010171052e-15 3.0663556086503455e-16
  outer loop
    vertex 1.2500000000000018 0.25000000000001066 1.6093749999999996
    vertex 1.2500000000000036 0.17912658773653511 0.49719238281250444
    vertex 1.2500000000000036 0.18537036414307373 0.48211857313141193
  endloop
endfacet
facet normal 1.0 1.961394010171052e-15 3.0663556086503455e-16
  outer loop
    vertex 1.2500000000000018 0.25000000000001066 1.6093749999999996
    vertex 1.2500000000000036 0.18537036414307373 0.48211857313141193
    vertex 1.2500000000000036 0.1875000000000071 0.46594238281250444
  endloop
endfacet
facet normal 1.0 1.961394010171052e-15 3.0663556086503455e-16
  outer loop
    vertex 1.2500000000000018 0.25000000000001066 1.6093749999999996
    vertex 1.2500000000000036 0.1875000000000071 0.46594238281250444
    vertex 1.2500000000000036 0.2500000000000018 -0.25000000000000067
  endloop
endfacet
facet normal -2.0771412375816099e-16 1.0 -5.89954087028994e-15
  outer loop
    vertex 0.0 0.2500000000000142 1.6093749999999996
    vertex 0.3125 0.2500000000000018 -0.25
    vertex 0.0 0.2500000000000018 -0.25
  endloop
endfacet
facet normal -2.0771412375816099e-16 1.0 -5.89954087028994e-15
  outer loop
    vertex 0.3125 0.2500000000000018 -0.25
    vertex 0.0 0.2500000000000142 1.6093749999999996
    vertex 0.3125 0.2500000000000018 0.0
  endloop
endfacet
facet normal -2.0771412375816099e-16 1.0 -5.89954087028994e-15
  outer loop
    vertex 0.9375000000000036 0.2500000000000018 -6.661338147750939e-16
    vertex 1.2500000000000036 0.2500000000000018 -0.25000000000000067
    vertex 0.9375000000000036 0.2500000000000018 -0.25000000000000067
  endloop
endfacet
facet normal -2.0771412375816099e-16 1.0 -5.89954087028994e-15
  outer loop
    vertex 1.2500000000000036 0.2500000000000018 -0.25000000000000067
    vertex 0.9375000000000036 0.2500000000000018 -6.661338147750939e-16
    vertex 1.2500000000000018 0.25000000000001066 1.6093749999999996
  endloop
endfacet
facet normal -2.0771412375816099e-16 1.0 -5.89954087028994e-15
  outer loop
    vertex 1.2500000000000018 0.25000000000001066 1.6093749999999996
    vertex 0.9375000000000036 0.2500000000000018 -6.661338147750939e-16
    vertex 0.3125 0.2500000000000018 0.0
  endloop
endfacet
facet normal -2.0771412375816099e-16 1.0 -5.89954087028994e-15
  outer loop
    vertex 1.2500000000000018 0.25000000000001066 1.6093749999999996
    vertex 0.3125 0.2500000000000018 0.0
    vertex 0.0 0.2500000000000142 1.6093749999999996
  endloop
endfacet
facet normal -1.0 -6.698345581905136e-15 6.132711217301899e-16
  outer loop
    vertex 3.552713678800501e-15 1.4210854715202004e-14 1.6093750000000013
    vertex 2.220446049250313e-15 0.06462963585694403 0.4821185731314168
    vertex 2.220446049250313e-15 0.06250000000001066 0.4659423828125093
  endloop
endfacet
facet normal -1.0 -6.698345581905136e-15 6.132711217301899e-16
  outer loop
    vertex 2.220446049250313e-15 0.06462963585694403 0.4821185731314168
    vertex 3.552713678800501e-15 1.4210854715202004e-14 1.6093750000000013
    vertex 0.0 0.2500000000000142 1.6093749999999996
  endloop
endfacet
facet normal -1.0 -6.698345581905136e-15 6.132711217301899e-16
  outer loop
    vertex 2.220446049250313e-15 0.06462963585694403 0.4821185731314168
    vertex 0.0 0.2500000000000142 1.6093749999999996
    vertex 2.220446049250313e-15 0.07087341226348265 0.4971923828125093
  endloop
endfacet
facet normal -1.0 -6.698345581905136e-15 6.132711217301899e-16
  outer loop
    vertex 2.220446049250313e-15 0.07087341226348265 0.4971923828125093
    vertex 0.0 0.2500000000000142 1.6093749999999996
    vertex 2.220446049250313e-15 0.08080582617585108 0.5101365566366685
  endloop
endfacet
facet normal -1.0 -6.698345581905136e-15 6.132711217301899e-16
  outer loop
    vertex 2.220446049250313e-15 0.08080582617585108 0.5101365566366685
    vertex 0.0 0.2500000000000142 1.6093749999999996
    vertex 1.7763568394002505e-15 0.09375000000001066 0.5200689705490367
  endloop
endfacet
facet normal -1.0 -6.698345581905136e-15 6.132711217301899e-16
  outer loop
    vertex 1.7763568394002505e-15 0.09375000000001066 0.5200689705490367
    vertex 0.0 0.2500000000000142 1.6093749999999996
    vertex 1.7763568394002505e-15 0.10882380968110361 0.5263127469555762
  endloop
endfacet
facet normal -1.0 -6.698345581905136e-15 6.132711217301899e-16
  outer loop
    vertex 1.7763568394002505e-15 0.10882380968110361 0.5263127469555762
    vertex 0.0 0.2500000000000142 1.6093749999999996
    vertex 1.7763568394002505e-15 0.12500000000001066 0.5284423828125093
  endloop
endfacet
facet normal -1.0 -6.698345581905136e-15 6.132711217301899e-16
  outer loop
    vertex 1.7763568394002505e-15 0.12500000000001066 0.5284423828125093
    vertex 0.0 0.2500000000000142 1.6093749999999996
    vertex 1.7763568394002505e-15 0.1411761903189177 0.5263127469555762
  endloop
endfacet
facet normal -1.0 -6.698345581905136e-15 6.132711217301899e-16
  outer loop
    vertex 1.7763568394002505e-15 0.1411761903189177 0.5263127469555762
    vertex 0.0 0.2500000000000142 1.6093749999999996
    vertex 1.7763568394002505e-15 0.15625000000001066 0.5200689705490367
  endloop
endfacet
facet normal -1.0 -6.698345581905136e-15 6.132711217301899e-16
  outer loop
    vertex 1.7763568394002505e-15 0.15625000000001066 0.5200689705490367
    vertex 0.0 0.2500000000000142 1.6093749999999996
    vertex 1.3322676295501878e-15 0.16919417382417024 0.5101365566366685
  endloop
endfacet
facet normal -1.0 -6.698345581905136e-15 6.132711217301899e-16
  outer loop
    vertex 1.3322676295501878e-15 0.16919417382417024 0.5101365566366685
    vertex 0.0 0.2500000000000142 1.6093749999999996
    vertex 1.3322676295501878e-15 0.17912658773653867 0.4971923828125093
  endloop
endfacet
facet normal -1.0 -6.698345581905136e-15 6.132711217301899e-16
  outer loop
    vertex 1.3322676295501878e-15 0.17912658773653867 0.4971923828125093
    vertex 0.0 0.2500000000000142 1.6093749999999996
    vertex 1.3322676295501878e-15 0.18537036414307728 0.4821185731314168
  endloop
endfacet
facet normal -1.0 -6.698345581905136e-15 6.132711217301899e-16
  outer loop
    vertex 1.3322676295501878e-15 0.18537036414307728 0.4821185731314168
    vertex 0.0 0.2500000000000142 1.6093749999999996
    vertex 1.3322676295501878e-15 0.18750000000001066 0.4659423828125093
  endloop
endfacet
facet normal -1.0 -6.698345581905136e-15 6.132711217301899e-16
  outer loop
    vertex 1.3322676295501878e-15 0.18750000000001066 0.4659423828125093
    vertex 0.0 0.2500000000000142 1.6093749999999996
    vertex 0.0 0.2500000000000018 -0.25
  endloop
endfacet
facet normal -1.0 -6.698345581905136e-15 6.132711217301899e-16
  outer loop
    vertex 0.0 1.7763568394002505e-15 -0.25
    vertex 2.220446049250313e-15 0.06462963585694403 0.44976619249360184
    vertex 0.0 0.2500000000000018 -0.25
  endloop
endfacet
facet normal -1.0 -6.698345581905136e-15 6.132711217301899e-16
  outer loop
    vertex 2.220446049250313e-15 0.06462963585694403 0.44976619249360184
    vertex 0.0 1.7763568394002505e-15 -0.25
    vertex 2.220446049250313e-15 0.06250000000001066 0.4659423828125093
  endloop
endfacet
facet normal -1.0 -6.698345581905136e-15 6.132711217301899e-16
  outer loop
    vertex 2.220446049250313e-15 0.06250000000001066 0.4659423828125093
    vertex 0.0 1.7763568394002505e-15 -0.25
    vertex 3.552713678800501e-15 1.4210854715202004e-14 1.6093750000000013
  endloop
endfacet
facet normal -1.0 -6.698345581905136e-15 6.132711217301899e-16
  outer loop
    vertex 0.0 0.2500000000000018 -0.25
    vertex 2.220446049250313e-15 0.06462963585694403 0.44976619249360184
    vertex 2.220446049250313e-15 0.07087341226348265 0.4346923828125093
  endloop
endfacet
facet normal -1.0 -6.698345581905136e-15 6.132711217301899e-16
  outer loop
    vertex 0.0 0.2500000000000018 -0.25
    vertex 2.220446049250313e-15 0.07087341226348265 0.4346923828125093
    vertex 2.220446049250313e-15 0.08080582617585108 0.4217482089883502
  endloop
endfacet
facet normal -1.0 -6.698345581905136e-15 6.132711217301899e-16
  outer loop
    vertex 0.0 0.2500000000000018 -0.25
    vertex 2.220446049250313e-15 0.08080582617585108 0.4217482089883502
    vertex 1.7763568394002505e-15 0.09375000000001066 0.411815795075982
  endloop
endfacet
facet normal -1.0 -6.698345581905136e-15 6.132711217301899e-16
  outer loop
    vertex 0.0 0.2500000000000018 -0.25
    vertex 1.7763568394002505e-15 0.09375000000001066 0.411815795075982
    vertex 1.7763568394002505e-15 0.10882380968110361 0.4055720186694425
  endloop
endfacet
facet normal -1.0 -6.698345581905136e-15 6.132711217301899e-16
  outer loop
    vertex 0.0 0.2500000000000018 -0.25
    vertex 1.7763568394002505e-15 0.10882380968110361 0.4055720186694425
    vertex 1.7763568394002505e-15 0.12500000000001066 0.4034423828125093
  endloop
endfacet
facet normal -1.0 -6.698345581905136e-15 6.132711217301899e-16
  outer loop
    vertex 0.0 0.2500000000000018 -0.25
    vertex 1.7763568394002505e-15 0.12500000000001066 0.4034423828125093
    vertex 1.7763568394002505e-15 0.1411761903189177 0.4055720186694425
  endloop
endfacet
facet normal -1.0 -6.698345581905136e-15 6.132711217301899e-16
  outer loop
    vertex 0.0 0.2500000000000018 -0.25
    vertex 1.7763568394002505e-15 0.1411761903189177 0.4055720186694425
    vertex 1.7763568394002505e-15 0.15625000000001066 0.411815795075982
  endloop
endfacet
facet normal -1.0 -6.698345581905136e-15 6.132711217301899e-16
  outer loop
    vertex 0.0 0.2500000000000018 -0.25
    vertex 1.7763568394002505e-15 0.15625000000001066 0.411815795075982
    vertex 1.3322676295501878e-15 0.16919417382417024 0.4217482089883502
  endloop
endfacet
facet normal -1.0 -6.698345581905136e-15 6.132711217301899e-16
  outer loop
    vertex 0.0 0.2500000000000018 -0.25
    vertex 1.3322676295501878e-15 0.16919417382417024 0.4217482089883502
    vertex 1.3322676295501878e-15 0.17912658773653867 0.4346923828125093
  endloop
endfacet
facet normal -1.0 -6.698345581905136e-15 6.132711217301899e-16
  outer loop
    vertex 0.0 0.2500000000000018 -0.25
    vertex 1.3322676295501878e-15 0.17912658773653867 0.4346923828125093
    vertex 1.3322676295501878e-15 0.18537036414307728 0.44976619249360184
  endloop
endfacet
facet normal -1.0 -6.698345581905136e-15 6.132711217301899e-16
  outer loop
    vertex 0.0 0.2500000000000018 -0.25
    vertex 1.3322676295501878e-15 0.18537036414307728 0.44976619249360184
    vertex 1.3322676295501878e-15 0.18750000000001066 0.4659423828125093
  endloop
endfacet
facet normal -1.5886705201272207e-15 -1.0 6.110854794930974e-15
  outer loop
    vertex 1.2500000000000036 0.0 -0.24999999999999845
    vertex 0.9375000000000036 1.7763568394002505e-15 -6.661338147750939e-16
    vertex 0.9375000000000036 1.7763568394002505e-15 -0.25000000000000067
  endloop
endfacet
facet normal -1.5886705201272207e-15 -1.0 6.110854794930974e-15
  outer loop
    vertex 0.9375000000000036 1.7763568394002505e-15 -6.661338147750939e-16
    vertex 1.2500000000000036 0.0 -0.24999999999999845
    vertex 1.2500000000000036 1.0658141036401503e-14 1.6093750000000013
  endloop
endfacet
facet normal -1.5886705201272207e-15 -1.0 6.110854794930974e-15
  outer loop
    vertex 0.9375000000000036 1.7763568394002505e-15 -6.661338147750939e-16
    vertex 1.2500000000000036 1.0658141036401503e-14 1.6093750000000013
    vertex 0.3125 1.7763568394002505e-15 0.0
  endloop
endfacet
facet normal -1.5886705201272207e-15 -1.0 6.110854794930974e-15
  outer loop
    vertex 0.3125 1.7763568394002505e-15 0.0
    vertex 0.0 1.7763568394002505e-15 -0.25
    vertex 0.3125 1.7763568394002505e-15 -0.25
  endloop
endfacet
facet normal -1.5886705201272207e-15 -1.0 6.110854794930974e-15
  outer loop
    vertex 0.0 1.7763568394002505e-15 -0.25
    vertex 0.3125 1.7763568394002505e-15 0.0
    vertex 3.552713678800501e-15 1.4210854715202004e-14 1.6093750000000013
  endloop
endfacet
facet normal -1.5886705201272207e-15 -1.0 6.110854794930974e-15
  outer loop
    vertex 3.552713678800501e-15 1.4210854715202004e-14 1.6093750000000013
    vertex 0.3125 1.7763568394002505e-15 0.0
    vertex 1.2500000000000036 1.0658141036401503e-14 1.6093750000000013
  endloop
endfacet
facet normal -8.88178419700121e-16 2.4651903288155155e-30 -1.0
  outer loop
    vertex 0.9375000000000036 0.2500000000000018 -6.661338147750939e-16
    vertex 0.3125 1.7763568394002505e-15 0.0
    vertex 0.3125 0.2500000000000018 0.0
  endloop
endfacet
facet normal -8.88178419700121e-16 2.4651903288155155e-30 -1.0
  outer loop
    vertex 0.3125 1.7763568394002505e-15 0.0
    vertex 0.9375000000000036 0.2500000000000018 -6.661338147750939e-16
    vertex 0.9375000000000036 1.7763568394002505e-15 -6.661338147750939e-16
  endloop
endfacet
facet normal 1.0 -2.7755575615628914e-15 0.0
  outer loop
    vertex 0.3125 0.2500000000000018 -0.25
    vertex 0.3125 1.7763568394002505e-15 0.0
    vertex 0.3125 1.7763568394002505e-15 -0.25
  endloop
endfacet
facet normal 1.0 -2.7755575615628914e-15 0.0
  outer loop
    vertex 0.3125 1.7763568394002505e-15 0.0
    vertex 0.3125 0.2500000000000018 -0.25
    vertex 0.3125 0.2500000000000018 0.0
  endloop
endfacet
facet normal 0.0 0.0 -1.0
  outer loop
    vertex 0.3125 0.2500000000000018 -0.25
    vertex 0.0 1.7763568394002505e-15 -0.25
    vertex 0.0 0.2500000000000018 -0.25
  endloop
endfacet
facet normal 0.0 0.0 -1.0
  outer loop
    vertex 0.0 1.7763568394002505e-15 -0.25
    vertex 0.3125 0.2500000000000018 -0.25
    vertex 0.3125 1.7763568394002505e-15 -0.25
  endloop
endfacet
facet normal 4.440892098500606e-15 -4.440892098500639e-15 -1.0
  outer loop
    vertex 1.2500000000000036 0.2500000000000018 -0.25000000000000067
    vertex 0.9375000000000036 1.7763568394002505e-15 -0.25000000000000067
    vertex 0.9375000000000036 0.2500000000000018 -0.25000000000000067
  endloop
endfacet
facet normal 4.440892098500606e-15 -4.440892098500639e-15 -1.0
  outer loop
    vertex 0.9375000000000036 1.7763568394002505e-15 -0.25000000000000067
    vertex 1.2500000000000036 0.2500000000000018 -0.25000000000000067
    vertex 1.2500000000000036 0.0 -0.24999999999999845
  endloop
endfacet
facet normal -1.0 2.7755575615628914e-15 0.0
  outer loop
    vertex 0.9375000000000036 0.2500000000000018 -6.661338147750939e-16
    vertex 0.9375000000000036 1.7763568394002505e-15 -0.25000000000000067
    vertex 0.9375000000000036 1.7763568394002505e-15 -6.661338147750939e-16
  endloop
endfacet
facet normal -1.0 2.7755575615628914e-15 0.0
  outer loop
    vertex 0.9375000000000036 1.7763568394002505e-15 -0.25000000000000067
    vertex 0.9375000000000036 0.2500000000000018 -6.661338147750939e-16
    vertex 0.9375000000000036 0.2500000000000018 -0.25000000000000067
  endloop
endfacet
facet normal 1.0 0.0 0.0
  outer loop
    vertex 1.1250000000000036 0.06462963585694048 0.44976619249359695
    vertex 1.1250000000000036 0.06462963585694048 0.48211857313141193
    vertex 1.1250000000000036 0.0625000000000071 0.46594238281250444
  endloop
endfacet
facet normal 1.0 0.0 0.0
  outer loop
    vertex 1.1250000000000036 0.06462963585694048 0.48211857313141193
    vertex 1.1250000000000036 0.06462963585694048 0.44976619249359695
    vertex 1.1250000000000036 0.0708734122634791 0.43469238281250444
  endloop
endfacet
facet normal 1.0 0.0 0.0
  outer loop
    vertex 1.1250000000000036 0.06462963585694048 0.48211857313141193
    vertex 1.1250000000000036 0.0708734122634791 0.43469238281250444
    vertex 1.1250000000000036 0.0708734122634791 0.49719238281250444
  endloop
endfacet
facet normal 1.0 0.0 0.0
  outer loop
    vertex 1.1250000000000036 0.0708734122634791 0.49719238281250444
    vertex 1.1250000000000036 0.0708734122634791 0.43469238281250444
    vertex 1.1250000000000036 0.08080582617584753 0.4217482089883453
  endloop
endfacet
facet normal 1.0 0.0 0.0
  outer loop
    vertex 1.1250000000000036 0.0708734122634791 0.49719238281250444
    vertex 1.1250000000000036 0.08080582617584753 0.4217482089883453
    vertex 1.1250000000000036 0.08080582617584753 0.5101365566366636
  endloop
endfacet
facet normal 1.0 0.0 0.0
  outer loop
    vertex 1.1250000000000036 0.08080582617584753 0.5101365566366636
    vertex 1.1250000000000036 0.08080582617584753 0.4217482089883453
    vertex 1.1250000000000036 0.0937500000000071 0.4118157950759771
  endloop
endfacet
facet normal 1.0 0.0 0.0
  outer loop
    vertex 1.1250000000000036 0.08080582617584753 0.5101365566366636
    vertex 1.1250000000000036 0.0937500000000071 0.4118157950759771
    vertex 1.1250000000000036 0.0937500000000071 0.5200689705490318
  endloop
endfacet
facet normal 1.0 0.0 0.0
  outer loop
    vertex 1.1250000000000036 0.0937500000000071 0.5200689705490318
    vertex 1.1250000000000036 0.0937500000000071 0.4118157950759771
    vertex 1.1250000000000036 0.10882380968110006 0.4055720186694376
  endloop
endfacet
facet normal 1.0 0.0 0.0
  outer loop
    vertex 1.1250000000000036 0.0937500000000071 0.5200689705490318
    vertex 1.1250000000000036 0.10882380968110006 0.4055720186694376
    vertex 1.1250000000000036 0.10882380968110006 0.5263127469555713
  endloop
endfacet
facet normal 1.0 0.0 0.0
  outer loop
    vertex 1.1250000000000036 0.10882380968110006 0.5263127469555713
    vertex 1.1250000000000036 0.10882380968110006 0.4055720186694376
    vertex 1.1250000000000036 0.1250000000000071 0.40344238281250444
  endloop
endfacet
facet normal 1.0 0.0 0.0
  outer loop
    vertex 1.1250000000000036 0.10882380968110006 0.5263127469555713
    vertex 1.1250000000000036 0.1250000000000071 0.40344238281250444
    vertex 1.1250000000000036 0.1250000000000071 0.5284423828125044
  endloop
endfacet
facet normal 1.0 0.0 0.0
  outer loop
    vertex 1.1250000000000036 0.1250000000000071 0.5284423828125044
    vertex 1.1250000000000036 0.1250000000000071 0.40344238281250444
    vertex 1.1250000000000036 0.14117619031891415 0.4055720186694376
  endloop
endfacet
facet normal 1.0 0.0 0.0
  outer loop
    vertex 1.1250000000000036 0.1250000000000071 0.5284423828125044
    vertex 1.1250000000000036 0.14117619031891415 0.4055720186694376
    vertex 1.1250000000000036 0.14117619031891415 0.5263127469555713
  endloop
endfacet
facet normal 1.0 0.0 0.0
  outer loop
    vertex 1.1250000000000036 0.14117619031891415 0.5263127469555713
    vertex 1.1250000000000036 0.14117619031891415 0.4055720186694376
    vertex 1.1250000000000036 0.1562500000000071 0.4118157950759771
  endloop
endfacet
facet normal 1.0 0.0 0.0
  outer loop
    vertex 1.1250000000000036 0.14117619031891415 0.5263127469555713
    vertex 1.1250000000000036 0.1562500000000071 0.4118157950759771
    vertex 1.1250000000000036 0.1562500000000071 0.5200689705490318
  endloop
endfacet
facet normal 1.0 0.0 0.0
  outer loop
    vertex 1.1250000000000036 0.1562500000000071 0.5200689705490318
    vertex 1.1250000000000036 0.1562500000000071 0.4118157950759771
    vertex 1.1250000000000036 0.16919417382416668 0.4217482089883453
  endloop
endfacet
facet normal 1.0 0.0 0.0
  outer loop
    vertex 1.1250000000000036 0.1562500000000071 0.5200689705490318
    vertex 1.1250000000000036 0.16919417382416668 0.4217482089883453
    vertex 1.1250000000000036 0.16919417382416668 0.5101365566366636
  endloop
endfacet
facet normal 1.0 0.0 0.0
  outer loop
    vertex 1.1250000000000036 0.16919417382416668 0.5101365566366636
    vertex 1.1250000000000036 0.16919417382416668 0.4217482089883453
    vertex 1.1250000000000036 0.17912658773653511 0.43469238281250444
  endloop
endfacet
facet normal 1.0 0.0 0.0
  outer loop
    vertex 1.1250000000000036 0.16919417382416668 0.5101365566366636
    vertex 1.1250000000000036 0.17912658773653511 0.43469238281250444
    vertex 1.1250000000000036 0.17912658773653511 0.49719238281250444
  endloop
endfacet
facet normal 1.0 0.0 0.0
  outer loop
    vertex 1.1250000000000036 0.17912658773653511 0.49719238281250444
    vertex 1.1250000000000036 0.17912658773653511 0.43469238281250444
    vertex 1.1250000000000036 0.18537036414307373 0.44976619249359695
  endloop
endfacet
facet normal 1.0 0.0 0.0
  outer loop
    vertex 1.1250000000000036 0.17912658773653511 0.49719238281250444
    vertex 1.1250000000000036 0.18537036414307373 0.44976619249359695
    vertex 1.1250000000000036 0.18537036414307373 0.48211857313141193
  endloop
endfacet
facet normal 1.0 0.0 0.0
  outer loop
    vertex 1.1250000000000036 0.18537036414307373 0.48211857313141193
    vertex 1.1250000000000036 0.18537036414307373 0.44976619249359695
    vertex 1.1250000000000036 0.1875000000000071 0.46594238281250444
  endloop
endfacet
facet normal 0.0 -0.3826834323650868 0.923879532511288
  outer loop
    vertex 1.2500000000000036 0.14117619031891415 0.4055720186694376
    vertex 1.1250000000000036 0.1562500000000071 0.4118157950759771
    vertex 1.1250000000000036 0.14117619031891415 0.4055720186694376
  endloop
endfacet
facet normal 0.0 -0.3826834323650868 0.923879532511288
  outer loop
    vertex 1.1250000000000036 0.1562500000000071 0.4118157950759771
    vertex 1.2500000000000036 0.14117619031891415 0.4055720186694376
    vertex 1.2500000000000036 0.1562500000000071 0.4118157950759771
  endloop
endfacet
facet normal 0.0 -0.6087614290087107 0.7933533402912428
  outer loop
    vertex 1.2500000000000036 0.1562500000000071 0.4118157950759771
    vertex 1.1250000000000036 0.16919417382416668 0.4217482089883453
    vertex 1.1250000000000036 0.1562500000000071 0.4118157950759771
  endloop
endfacet
facet normal 0.0 -0.6087614290087107 0.7933533402912428
  outer loop
    vertex 1.1250000000000036 0.16919417382416668 0.4217482089883453
    vertex 1.2500000000000036 0.1562500000000071 0.4118157950759771
    vertex 1.2500000000000036 0.16919417382416668 0.4217482089883453
  endloop
endfacet
facet normal 0.0 -0.7933533402912263 0.6087614290087324
  outer loop
    vertex 1.2500000000000036 0.17912658773653511 0.43469238281250444
    vertex 1.1250000000000036 0.16919417382416668 0.4217482089883453
    vertex 1.2500000000000036 0.16919417382416668 0.4217482089883453
  endloop
endfacet
facet normal 0.0 -0.7933533402912263 0.6087614290087324
  outer loop
    vertex 1.1250000000000036 0.16919417382416668 0.4217482089883453
    vertex 1.2500000000000036 0.17912658773653511 0.43469238281250444
    vertex 1.1250000000000036 0.17912658773653511 0.43469238281250444
  endloop
endfacet
facet normal 0.0 -0.9238795325113034 0.38268343236505
  outer loop
    vertex 1.2500000000000036 0.18537036414307373 0.44976619249359695
    vertex 1.1250000000000036 0.17912658773653511 0.43469238281250444
    vertex 1.2500000000000036 0.17912658773653511 0.43469238281250444
  endloop
endfacet
facet normal 0.0 -0.9238795325113034 0.38268343236505
  outer loop
    vertex 1.1250000000000036 0.17912658773653511 0.43469238281250444
    vertex 1.2500000000000036 0.18537036414307373 0.44976619249359695
    vertex 1.1250000000000036 0.18537036414307373 0.44976619249359695
  endloop
endfacet
facet normal 0.0 -0.9914448613738092 0.1305261922200607
  outer loop
    vertex 1.2500000000000036 0.1875000000000071 0.46594238281250444
    vertex 1.1250000000000036 0.18537036414307373 0.44976619249359695
    vertex 1.2500000000000036 0.18537036414307373 0.44976619249359695
  endloop
endfacet
facet normal 0.0 -0.9914448613738092 0.1305261922200607
  outer loop
    vertex 1.1250000000000036 0.18537036414307373 0.44976619249359695
    vertex 1.2500000000000036 0.1875000000000071 0.46594238281250444
    vertex 1.1250000000000036 0.1875000000000071 0.46594238281250444
  endloop
endfacet
facet normal -0.0 -0.9914448613738092 -0.1305261922200607
  outer loop
    vertex 1.2500000000000036 0.18537036414307373 0.48211857313141193
    vertex 1.1250000000000036 0.1875000000000071 0.46594238281250444
    vertex 1.2500000000000036 0.1875000000000071 0.46594238281250444
  endloop
endfacet
facet normal -0.0 -0.9914448613738092 -0.1305261922200607
  outer loop
    vertex 1.1250000000000036 0.1875000000000071 0.46594238281250444
    vertex 1.2500000000000036 0.18537036414307373 0.48211857313141193
    vertex 1.1250000000000036 0.18537036414307373 0.48211857313141193
  endloop
endfacet
facet normal -0.0 -0.9238795325113034 -0.38268343236505
  outer loop
    vertex 1.2500000000000036 0.17912658773653511 0.49719238281250444
    vertex 1.1250000000000036 0.18537036414307373 0.48211857313141193
    vertex 1.2500000000000036 0.18537036414307373 0.48211857313141193
  endloop
endfacet
facet normal -0.0 -0.9238795325113034 -0.38268343236505
  outer loop
    vertex 1.1250000000000036 0.18537036414307373 0.48211857313141193
    vertex 1.2500000000000036 0.17912658773653511 0.49719238281250444
    vertex 1.1250000000000036 0.17912658773653511 0.49719238281250444
  endloop
endfacet
facet normal -0.0 -0.7933533402912263 -0.6087614290087324
  outer loop
    vertex 1.2500000000000036 0.16919417382416668 0.5101365566366636
    vertex 1.1250000000000036 0.17912658773653511 0.49719238281250444
    vertex 1.2500000000000036 0.17912658773653511 0.49719238281250444
  endloop
endfacet
facet normal -0.0 -0.7933533402912263 -0.6087614290087324
  outer loop
    vertex 1.1250000000000036 0.17912658773653511 0.49719238281250444
    vertex 1.2500000000000036 0.16919417382416668 0.5101365566366636
    vertex 1.1250000000000036 0.16919417382416668 0.5101365566366636
  endloop
endfacet
facet normal -0.0 -0.6087614290087107 -0.7933533402912428
  outer loop
    vertex 1.2500000000000036 0.16919417382416668 0.5101365566366636
    vertex 1.1250000000000036 0.1562500000000071 0.5200689705490318
    vertex 1.1250000000000036 0.16919417382416668 0.5101365566366636
  endloop
endfacet
facet normal -0.0 -0.6087614290087107 -0.7933533402912428
  outer loop
    vertex 1.1250000000000036 0.1562500000000071 0.5200689705490318
    vertex 1.2500000000000036 0.16919417382416668 0.5101365566366636
    vertex 1.2500000000000036 0.1562500000000071 0.5200689705490318
  endloop
endfacet
facet normal -0.0 -0.3826834323650868 -0.923879532511288
  outer loop
    vertex 1.2500000000000036 0.1562500000000071 0.5200689705490318
    vertex 1.1250000000000036 0.14117619031891415 0.5263127469555713
    vertex 1.1250000000000036 0.1562500000000071 0.5200689705490318
  endloop
endfacet
facet normal -0.0 -0.3826834323650868 -0.923879532511288
  outer loop
    vertex 1.1250000000000036 0.14117619031891415 0.5263127469555713
    vertex 1.2500000000000036 0.1562500000000071 0.5200689705490318
    vertex 1.2500000000000036 0.14117619031891415 0.5263127469555713
  endloop
endfacet
facet normal -0.0 -0.13052619222005088 -0.9914448613738106
  outer loop
    vertex 1.2500000000000036 0.14117619031891415 0.5263127469555713
    vertex 1.1250000000000036 0.1250000000000071 0.5284423828125044
    vertex 1.1250000000000036 0.14117619031891415 0.5263127469555713
  endloop
endfacet
facet normal -0.0 -0.13052619222005088 -0.9914448613738106
  outer loop
    vertex 1.1250000000000036 0.1250000000000071 0.5284423828125044
    vertex 1.2500000000000036 0.14117619031891415 0.5263127469555713
    vertex 1.2500000000000036 0.1250000000000071 0.5284423828125044
  endloop
endfacet
facet normal 0.0 0.13052619222005088 -0.9914448613738106
  outer loop
    vertex 1.2500000000000036 0.1250000000000071 0.5284423828125044
    vertex 1.1250000000000036 0.10882380968110006 0.5263127469555713
    vertex 1.1250000000000036 0.1250000000000071 0.5284423828125044
  endloop
endfacet
facet normal 0.0 0.13052619222005088 -0.9914448613738106
  outer loop
    vertex 1.1250000000000036 0.10882380968110006 0.5263127469555713
    vertex 1.2500000000000036 0.1250000000000071 0.5284423828125044
    vertex 1.2500000000000036 0.10882380968110006 0.5263127469555713
  endloop
endfacet
facet normal 0.0 0.3826834323650868 -0.923879532511288
  outer loop
    vertex 1.2500000000000036 0.10882380968110006 0.5263127469555713
    vertex 1.1250000000000036 0.0937500000000071 0.5200689705490318
    vertex 1.1250000000000036 0.10882380968110006 0.5263127469555713
  endloop
endfacet
facet normal 0.0 0.3826834323650868 -0.923879532511288
  outer loop
    vertex 1.1250000000000036 0.0937500000000071 0.5200689705490318
    vertex 1.2500000000000036 0.10882380968110006 0.5263127469555713
    vertex 1.2500000000000036 0.0937500000000071 0.5200689705490318
  endloop
endfacet
facet normal 0.0 0.6087614290087107 -0.7933533402912428
  outer loop
    vertex 1.2500000000000036 0.0937500000000071 0.5200689705490318
    vertex 1.1250000000000036 0.08080582617584753 0.5101365566366636
    vertex 1.1250000000000036 0.0937500000000071 0.5200689705490318
  endloop
endfacet
facet normal 0.0 0.6087614290087107 -0.7933533402912428
  outer loop
    vertex 1.1250000000000036 0.08080582617584753 0.5101365566366636
    vertex 1.2500000000000036 0.0937500000000071 0.5200689705490318
    vertex 1.2500000000000036 0.08080582617584753 0.5101365566366636
  endloop
endfacet
facet normal 0.0 0.7933533402912263 -0.6087614290087324
  outer loop
    vertex 1.1250000000000036 0.08080582617584753 0.5101365566366636
    vertex 1.2500000000000036 0.0708734122634791 0.49719238281250444
    vertex 1.1250000000000036 0.0708734122634791 0.49719238281250444
  endloop
endfacet
facet normal 0.0 0.7933533402912263 -0.6087614290087324
  outer loop
    vertex 1.2500000000000036 0.0708734122634791 0.49719238281250444
    vertex 1.1250000000000036 0.08080582617584753 0.5101365566366636
    vertex 1.2500000000000036 0.08080582617584753 0.5101365566366636
  endloop
endfacet
facet normal 0.0 0.9238795325113034 -0.38268343236505
  outer loop
    vertex 1.1250000000000036 0.0708734122634791 0.49719238281250444
    vertex 1.2500000000000036 0.06462963585694048 0.48211857313141193
    vertex 1.1250000000000036 0.06462963585694048 0.48211857313141193
  endloop
endfacet
facet normal 0.0 0.9238795325113034 -0.38268343236505
  outer loop
    vertex 1.2500000000000036 0.06462963585694048 0.48211857313141193
    vertex 1.1250000000000036 0.0708734122634791 0.49719238281250444
    vertex 1.2500000000000036 0.0708734122634791 0.49719238281250444
  endloop
endfacet
facet normal 0.0 0.9914448613738092 -0.1305261922200607
  outer loop
    vertex 1.1250000000000036 0.06462963585694048 0.48211857313141193
    vertex 1.2500000000000036 0.0625000000000071 0.46594238281250444
    vertex 1.1250000000000036 0.0625000000000071 0.46594238281250444
  endloop
endfacet
facet normal 0.0 0.9914448613738092 -0.1305261922200607
  outer loop
    vertex 1.2500000000000036 0.0625000000000071 0.46594238281250444
    vertex 1.1250000000000036 0.06462963585694048 0.48211857313141193
    vertex 1.2500000000000036 0.06462963585694048 0.48211857313141193
  endloop
endfacet
facet normal 0.0 0.9914448613738092 0.1305261922200607
  outer loop
    vertex 1.1250000000000036 0.0625000000000071 0.46594238281250444
    vertex 1.2500000000000036 0.06462963585694048 0.44976619249359695
    vertex 1.1250000000000036 0.06462963585694048 0.44976619249359695
  endloop
endfacet
facet normal 0.0 0.9914448613738092 0.1305261922200607
  outer loop
    vertex 1.2500000000000036 0.06462963585694048 0.44976619249359695
    vertex 1.1250000000000036 0.0625000000000071 0.46594238281250444
    vertex 1.2500000000000036 0.0625000000000071 0.46594238281250444
  endloop
endfacet
facet normal 0.0 0.9238795325113034 0.38268343236505
  outer loop
    vertex 1.1250000000000036 0.06462963585694048 0.44976619249359695
    vertex 1.2500000000000036 0.0708734122634791 0.43469238281250444
    vertex 1.1250000000000036 0.0708734122634791 0.43469238281250444
  endloop
endfacet
facet normal 0.0 0.9238795325113034 0.38268343236505
  outer loop
    vertex 1.2500000000000036 0.0708734122634791 0.43469238281250444
    vertex 1.1250000000000036 0.06462963585694048 0.44976619249359695
    vertex 1.2500000000000036 0.06462963585694048 0.44976619249359695
  endloop
endfacet
facet normal 0.0 0.7933533402912263 0.6087614290087324
  outer loop
    vertex 1.1250000000000036 0.0708734122634791 0.43469238281250444
    vertex 1.2500000000000036 0.08080582617584753 0.4217482089883453
    vertex 1.1250000000000036 0.08080582617584753 0.4217482089883453
  endloop
endfacet
facet normal 0.0 0.7933533402912263 0.6087614290087324
  outer loop
    vertex 1.2500000000000036 0.08080582617584753 0.4217482089883453
    vertex 1.1250000000000036 0.0708734122634791 0.43469238281250444
    vertex 1.2500000000000036 0.0708734122634791 0.43469238281250444
  endloop
endfacet
facet normal 0.0 0.6087614290087107 0.7933533402912428
  outer loop
    vertex 1.2500000000000036 0.08080582617584753 0.4217482089883453
    vertex 1.1250000000000036 0.0937500000000071 0.4118157950759771
    vertex 1.1250000000000036 0.08080582617584753 0.4217482089883453
  endloop
endfacet
facet normal 0.0 0.6087614290087107 0.7933533402912428
  outer loop
    vertex 1.1250000000000036 0.0937500000000071 0.4118157950759771
    vertex 1.2500000000000036 0.08080582617584753 0.4217482089883453
    vertex 1.2500000000000036 0.0937500000000071 0.4118157950759771
  endloop
endfacet
facet normal 0.0 0.3826834323650868 0.923879532511288
  outer loop
    vertex 1.2500000000000036 0.0937500000000071 0.4118157950759771
    vertex 1.1250000000000036 0.10882380968110006 0.4055720186694376
    vertex 1.1250000000000036 0.0937500000000071 0.4118157950759771
  endloop
endfacet
facet normal 0.0 0.3826834323650868 0.923879532511288
  outer loop
    vertex 1.1250000000000036 0.10882380968110006 0.4055720186694376
    vertex 1.2500000000000036 0.0937500000000071 0.4118157950759771
    vertex 1.2500000000000036 0.10882380968110006 0.4055720186694376
  endloop
endfacet
facet normal 0.0 0.13052619222005088 0.9914448613738106
  outer loop
    vertex 1.2500000000000036 0.10882380968110006 0.4055720186694376
    vertex 1.1250000000000036 0.1250000000000071 0.40344238281250444
    vertex 1.1250000000000036 0.10882380968110006 0.4055720186694376
  endloop
endfacet
facet normal 0.0 0.13052619222005088 0.9914448613738106
  outer loop
    vertex 1.1250000000000036 0.1250000000000071 0.40344238281250444
    vertex 1.2500000000000036 0.10882380968110006 0.4055720186694376
    vertex 1.2500000000000036 0.1250000000000071 0.40344238281250444
  endloop
endfacet
facet normal 0.0 -0.13052619222005088 0.9914448613738106
  outer loop
    vertex 1.2500000000000036 0.1250000000000071 0.40344238281250444
    vertex 1.1250000000000036 0.14117619031891415 0.4055720186694376
    vertex 1.1250000000000036 0.1250000000000071 0.40344238281250444
  endloop
endfacet
facet normal 0.0 -0.13052619222005088 0.9914448613738106
  outer loop
    vertex 1.1250000000000036 0.14117619031891415 0.4055720186694376
    vertex 1.2500000000000036 0.1250000000000071 0.40344238281250444
    vertex 1.2500000000000036 0.14117619031891415 0.4055720186694376
  endloop
endfacet
facet normal -1.0 -7.197935311514554e-15 -3.3297139635857965e-32
  outer loop
    vertex 0.12500000000000178 0.06462963585694581 0.4821185731314168
    vertex 0.12500000000000178 0.06462963585694581 0.44976619249360184
    vertex 0.12500000000000178 0.06250000000001243 0.4659423828125093
  endloop
endfacet
facet normal -1.0 -7.197935311514554e-15 -3.3297139635857965e-32
  outer loop
    vertex 0.12500000000000178 0.06462963585694581 0.44976619249360184
    vertex 0.12500000000000178 0.06462963585694581 0.4821185731314168
    vertex 0.12500000000000178 0.07087341226348443 0.4971923828125093
  endloop
endfacet
facet normal -1.0 -7.197935311514554e-15 -3.3297139635857965e-32
  outer loop
    vertex 0.12500000000000178 0.06462963585694581 0.44976619249360184
    vertex 0.12500000000000178 0.07087341226348443 0.4971923828125093
    vertex 0.12500000000000178 0.07087341226348443 0.4346923828125093
  endloop
endfacet
facet normal -1.0 -7.197935311514554e-15 -3.3297139635857965e-32
  outer loop
    vertex 0.12500000000000178 0.07087341226348443 0.4346923828125093
    vertex 0.12500000000000178 0.07087341226348443 0.4971923828125093
    vertex 0.12500000000000178 0.08080582617585286 0.5101365566366685
  endloop
endfacet
facet normal -1.0 -7.197935311514554e-15 -3.3297139635857965e-32
  outer loop
    vertex 0.12500000000000178 0.07087341226348443 0.4346923828125093
    vertex 0.12500000000000178 0.08080582617585286 0.5101365566366685
    vertex 0.12500000000000178 0.08080582617585286 0.4217482089883502
  endloop
endfacet
facet normal -1.0 -7.197935311514554e-15 -3.3297139635857965e-32
  outer loop
    vertex 0.12500000000000178 0.08080582617585286 0.4217482089883502
    vertex 0.12500000000000178 0.08080582617585286 0.5101365566366685
    vertex 0.12500000000000178 0.09375000000001243 0.5200689705490367
  endloop
endfacet
facet normal -1.0 -7.197935311514554e-15 -3.3297139635857965e-32
  outer loop
    vertex 0.12500000000000178 0.08080582617585286 0.4217482089883502
    vertex 0.12500000000000178 0.09375000000001243 0.5200689705490367
    vertex 0.12500000000000178 0.09375000000001243 0.411815795075982
  endloop
endfacet
facet normal -1.0 -7.197935311514554e-15 -3.3297139635857965e-32
  outer loop
    vertex 0.12500000000000178 0.09375000000001243 0.411815795075982
    vertex 0.12500000000000178 0.09375000000001243 0.5200689705490367
    vertex 0.12500000000000178 0.10882380968110539 0.5263127469555762
  endloop
endfacet
facet normal -1.0 -7.197935311514554e-15 -3.3297139635857965e-32
  outer loop
    vertex 0.12500000000000178 0.09375000000001243 0.411815795075982
    vertex 0.12500000000000178 0.10882380968110539 0.5263127469555762
    vertex 0.12500000000000178 0.10882380968110539 0.4055720186694425
  endloop
endfacet
facet normal -1.0 -7.197935311514554e-15 -3.3297139635857965e-32
  outer loop
    vertex 0.12500000000000178 0.10882380968110539 0.4055720186694425
    vertex 0.12500000000000178 0.10882380968110539 0.5263127469555762
    vertex 0.12500000000000178 0.12500000000001243 0.5284423828125093
  endloop
endfacet
facet normal -1.0 -7.197935311514554e-15 -3.3297139635857965e-32
  outer loop
    vertex 0.12500000000000178 0.10882380968110539 0.4055720186694425
    vertex 0.12500000000000178 0.12500000000001243 0.5284423828125093
    vertex 0.12500000000000178 0.12500000000001243 0.4034423828125093
  endloop
endfacet
facet normal -1.0 -7.197935311514554e-15 -3.3297139635857965e-32
  outer loop
    vertex 0.12500000000000178 0.12500000000001243 0.4034423828125093
    vertex 0.12500000000000178 0.12500000000001243 0.5284423828125093
    vertex 0.12500000000000178 0.14117619031891948 0.5263127469555762
  endloop
endfacet
facet normal -1.0 -7.197935311514554e-15 -3.3297139635857965e-32
  outer loop
    vertex 0.12500000000000178 0.12500000000001243 0.4034423828125093
    vertex 0.12500000000000178 0.14117619031891948 0.5263127469555762
    vertex 0.12500000000000178 0.14117619031891948 0.4055720186694425
  endloop
endfacet
facet normal -1.0 -7.197935311514554e-15 -3.3297139635857965e-32
  outer loop
    vertex 0.12500000000000178 0.14117619031891948 0.4055720186694425
    vertex 0.12500000000000178 0.14117619031891948 0.5263127469555762
    vertex 0.12500000000000178 0.15625000000001243 0.5200689705490367
  endloop
endfacet
facet normal -1.0 -7.197935311514554e-15 -3.3297139635857965e-32
  outer loop
    vertex 0.12500000000000178 0.14117619031891948 0.4055720186694425
    vertex 0.12500000000000178 0.15625000000001243 0.5200689705490367
    vertex 0.12500000000000178 0.15625000000001243 0.411815795075982
  endloop
endfacet
facet normal -1.0 -7.197935311514554e-15 -3.3297139635857965e-32
  outer loop
    vertex 0.12500000000000178 0.15625000000001243 0.411815795075982
    vertex 0.12500000000000178 0.15625000000001243 0.5200689705490367
    vertex 0.12500000000000178 0.169194173824172 0.5101365566366685
  endloop
endfacet
facet normal -1.0 -7.197935311514554e-15 -3.3297139635857965e-32
  outer loop
    vertex 0.12500000000000178 0.15625000000001243 0.411815795075982
    vertex 0.12500000000000178 0.169194173824172 0.5101365566366685
    vertex 0.12500000000000178 0.169194173824172 0.4217482089883502
  endloop
endfacet
facet normal -1.0 -7.197935311514554e-15 -3.3297139635857965e-32
  outer loop
    vertex 0.12500000000000178 0.169194173824172 0.4217482089883502
    vertex 0.12500000000000178 0.169194173824172 0.5101365566366685
    vertex 0.12500000000000178 0.17912658773654044 0.4971923828125093
  endloop
endfacet
facet normal -1.0 -7.197935311514554e-15 -3.3297139635857965e-32
  outer loop
    vertex 0.12500000000000178 0.169194173824172 0.4217482089883502
    vertex 0.12500000000000178 0.17912658773654044 0.4971923828125093
    vertex 0.12500000000000178 0.17912658773654044 0.4346923828125093
  endloop
endfacet
facet normal -1.0 -7.197935311514554e-15 -3.3297139635857965e-32
  outer loop
    vertex 0.12500000000000178 0.17912658773654044 0.4346923828125093
    vertex 0.12500000000000178 0.17912658773654044 0.4971923828125093
    vertex 0.12500000000000178 0.18537036414307906 0.4821185731314168
  endloop
endfacet
facet normal -1.0 -7.197935311514554e-15 -3.3297139635857965e-32
  outer loop
    vertex 0.12500000000000178 0.17912658773654044 0.4346923828125093
    vertex 0.12500000000000178 0.18537036414307906 0.4821185731314168
    vertex 0.12500000000000178 0.18537036414307906 0.44976619249360184
  endloop
endfacet
facet normal -1.0 -7.197935311514554e-15 -3.3297139635857965e-32
  outer loop
    vertex 0.12500000000000178 0.18537036414307906 0.44976619249360184
    vertex 0.12500000000000178 0.18537036414307906 0.4821185731314168
    vertex 0.12500000000000178 0.18750000000001243 0.4659423828125093
  endloop
endfacet
facet normal -9.395190880582405e-16 0.13052619222005088 0.9914448613738106
  outer loop
    vertex 0.12500000000000178 0.10882380968110539 0.4055720186694425
    vertex 1.7763568394002505e-15 0.12500000000001066 0.4034423828125093
    vertex 1.7763568394002505e-15 0.10882380968110361 0.4055720186694425
  endloop
endfacet
facet normal -9.395190880582405e-16 0.13052619222005088 0.9914448613738106
  outer loop
    vertex 1.7763568394002505e-15 0.12500000000001066 0.4034423828125093
    vertex 0.12500000000000178 0.10882380968110539 0.4055720186694425
    vertex 0.12500000000000178 0.12500000000001243 0.4034423828125093
  endloop
endfacet
facet normal -2.7545305909522495e-15 0.3826834323650868 0.923879532511288
  outer loop
    vertex 0.12500000000000178 0.09375000000001243 0.411815795075982
    vertex 1.7763568394002505e-15 0.10882380968110361 0.4055720186694425
    vertex 1.7763568394002505e-15 0.09375000000001066 0.411815795075982
  endloop
endfacet
facet normal -2.7545305909522495e-15 0.3826834323650868 0.923879532511288
  outer loop
    vertex 1.7763568394002505e-15 0.10882380968110361 0.4055720186694425
    vertex 0.12500000000000178 0.09375000000001243 0.411815795075982
    vertex 0.12500000000000178 0.10882380968110539 0.4055720186694425
  endloop
endfacet
facet normal -4.381825386149858e-15 0.6087614290087107 0.7933533402912428
  outer loop
    vertex 2.220446049250313e-15 0.08080582617585108 0.4217482089883502
    vertex 0.12500000000000178 0.09375000000001243 0.411815795075982
    vertex 1.7763568394002505e-15 0.09375000000001066 0.411815795075982
  endloop
endfacet
facet normal -4.381825386149858e-15 0.6087614290087107 0.7933533402912428
  outer loop
    vertex 0.12500000000000178 0.09375000000001243 0.411815795075982
    vertex 2.220446049250313e-15 0.08080582617585108 0.4217482089883502
    vertex 0.12500000000000178 0.08080582617585286 0.4217482089883502
  endloop
endfacet
facet normal -5.7105060225902395e-15 0.7933533402912263 0.6087614290087324
  outer loop
    vertex 2.220446049250313e-15 0.07087341226348265 0.4346923828125093
    vertex 0.12500000000000178 0.08080582617585286 0.4217482089883502
    vertex 2.220446049250313e-15 0.08080582617585108 0.4217482089883502
  endloop
endfacet
facet normal -5.7105060225902395e-15 0.7933533402912263 0.6087614290087324
  outer loop
    vertex 0.12500000000000178 0.08080582617585286 0.4217482089883502
    vertex 2.220446049250313e-15 0.07087341226348265 0.4346923828125093
    vertex 0.12500000000000178 0.07087341226348443 0.4346923828125093
  endloop
endfacet
facet normal -6.650025110648668e-15 0.9238795325113034 0.38268343236505
  outer loop
    vertex 2.220446049250313e-15 0.06462963585694403 0.44976619249360184
    vertex 0.12500000000000178 0.07087341226348443 0.4346923828125093
    vertex 2.220446049250313e-15 0.07087341226348265 0.4346923828125093
  endloop
endfacet
facet normal -6.650025110648668e-15 0.9238795325113034 0.38268343236505
  outer loop
    vertex 0.12500000000000178 0.07087341226348443 0.4346923828125093
    vertex 2.220446049250313e-15 0.06462963585694403 0.44976619249360184
    vertex 0.12500000000000178 0.06462963585694581 0.44976619249360184
  endloop
endfacet
facet normal -7.136355977102192e-15 0.9914448613738092 0.1305261922200607
  outer loop
    vertex 2.220446049250313e-15 0.06250000000001066 0.4659423828125093
    vertex 0.12500000000000178 0.06462963585694581 0.44976619249360184
    vertex 2.220446049250313e-15 0.06462963585694403 0.44976619249360184
  endloop
endfacet
facet normal -7.136355977102192e-15 0.9914448613738092 0.1305261922200607
  outer loop
    vertex 0.12500000000000178 0.06462963585694581 0.44976619249360184
    vertex 2.220446049250313e-15 0.06250000000001066 0.4659423828125093
    vertex 0.12500000000000178 0.06250000000001243 0.4659423828125093
  endloop
endfacet
facet normal -7.136355977102192e-15 0.9914448613738092 -0.1305261922200607
  outer loop
    vertex 2.220446049250313e-15 0.06462963585694403 0.4821185731314168
    vertex 0.12500000000000178 0.06250000000001243 0.4659423828125093
    vertex 2.220446049250313e-15 0.06250000000001066 0.4659423828125093
  endloop
endfacet
facet normal -7.136355977102192e-15 0.9914448613738092 -0.1305261922200607
  outer loop
    vertex 0.12500000000000178 0.06250000000001243 0.4659423828125093
    vertex 2.220446049250313e-15 0.06462963585694403 0.4821185731314168
    vertex 0.12500000000000178 0.06462963585694581 0.4821185731314168
  endloop
endfacet
facet normal -6.650025110648668e-15 0.9238795325113034 -0.38268343236505
  outer loop
    vertex 2.220446049250313e-15 0.07087341226348265 0.4971923828125093
    vertex 0.12500000000000178 0.06462963585694581 0.4821185731314168
    vertex 2.220446049250313e-15 0.06462963585694403 0.4821185731314168
  endloop
endfacet
facet normal -6.650025110648668e-15 0.9238795325113034 -0.38268343236505
  outer loop
    vertex 0.12500000000000178 0.06462963585694581 0.4821185731314168
    vertex 2.220446049250313e-15 0.07087341226348265 0.4971923828125093
    vertex 0.12500000000000178 0.07087341226348443 0.4971923828125093
  endloop
endfacet
facet normal -5.7105060225902395e-15 0.7933533402912263 -0.6087614290087324
  outer loop
    vertex 2.220446049250313e-15 0.08080582617585108 0.5101365566366685
    vertex 0.12500000000000178 0.07087341226348443 0.4971923828125093
    vertex 2.220446049250313e-15 0.07087341226348265 0.4971923828125093
  endloop
endfacet
facet normal -5.7105060225902395e-15 0.7933533402912263 -0.6087614290087324
  outer loop
    vertex 0.12500000000000178 0.07087341226348443 0.4971923828125093
    vertex 2.220446049250313e-15 0.08080582617585108 0.5101365566366685
    vertex 0.12500000000000178 0.08080582617585286 0.5101365566366685
  endloop
endfacet
facet normal -4.381825386149858e-15 0.6087614290087107 -0.7933533402912428
  outer loop
    vertex 0.12500000000000178 0.09375000000001243 0.5200689705490367
    vertex 2.220446049250313e-15 0.08080582617585108 0.5101365566366685
    vertex 1.7763568394002505e-15 0.09375000000001066 0.5200689705490367
  endloop
endfacet
facet normal -4.381825386149858e-15 0.6087614290087107 -0.7933533402912428
  outer loop
    vertex 2.220446049250313e-15 0.08080582617585108 0.5101365566366685
    vertex 0.12500000000000178 0.09375000000001243 0.5200689705490367
    vertex 0.12500000000000178 0.08080582617585286 0.5101365566366685
  endloop
endfacet
facet normal -2.7545305909522495e-15 0.3826834323650868 -0.923879532511288
  outer loop
    vertex 0.12500000000000178 0.10882380968110539 0.5263127469555762
    vertex 1.7763568394002505e-15 0.09375000000001066 0.5200689705490367
    vertex 1.7763568394002505e-15 0.10882380968110361 0.5263127469555762
  endloop
endfacet
facet normal -2.7545305909522495e-15 0.3826834323650868 -0.923879532511288
  outer loop
    vertex 1.7763568394002505e-15 0.09375000000001066 0.5200689705490367
    vertex 0.12500000000000178 0.10882380968110539 0.5263127469555762
    vertex 0.12500000000000178 0.09375000000001243 0.5200689705490367
  endloop
endfacet
facet normal -9.395190880582405e-16 0.13052619222005088 -0.9914448613738106
  outer loop
    vertex 0.12500000000000178 0.12500000000001243 0.5284423828125093
    vertex 1.7763568394002505e-15 0.10882380968110361 0.5263127469555762
    vertex 1.7763568394002505e-15 0.12500000000001066 0.5284423828125093
  endloop
endfacet
facet normal -9.395190880582405e-16 0.13052619222005088 -0.9914448613738106
  outer loop
    vertex 1.7763568394002505e-15 0.10882380968110361 0.5263127469555762
    vertex 0.12500000000000178 0.12500000000001243 0.5284423828125093
    vertex 0.12500000000000178 0.10882380968110539 0.5263127469555762
  endloop
endfacet
facet normal 9.395190880582405e-16 -0.13052619222005088 -0.9914448613738106
  outer loop
    vertex 0.12500000000000178 0.14117619031891948 0.5263127469555762
    vertex 1.7763568394002505e-15 0.12500000000001066 0.5284423828125093
    vertex 1.7763568394002505e-15 0.1411761903189177 0.5263127469555762
  endloop
endfacet
facet normal 9.395190880582405e-16 -0.13052619222005088 -0.9914448613738106
  outer loop
    vertex 1.7763568394002505e-15 0.12500000000001066 0.5284423828125093
    vertex 0.12500000000000178 0.14117619031891948 0.5263127469555762
    vertex 0.12500000000000178 0.12500000000001243 0.5284423828125093
  endloop
endfacet
facet normal 2.7545305909522495e-15 -0.3826834323650868 -0.923879532511288
  outer loop
    vertex 0.12500000000000178 0.15625000000001243 0.5200689705490367
    vertex 1.7763568394002505e-15 0.1411761903189177 0.5263127469555762
    vertex 1.7763568394002505e-15 0.15625000000001066 0.5200689705490367
  endloop
endfacet
facet normal 2.7545305909522495e-15 -0.3826834323650868 -0.923879532511288
  outer loop
    vertex 1.7763568394002505e-15 0.1411761903189177 0.5263127469555762
    vertex 0.12500000000000178 0.15625000000001243 0.5200689705490367
    vertex 0.12500000000000178 0.14117619031891948 0.5263127469555762
  endloop
endfacet
facet normal 4.381825386149858e-15 -0.6087614290087107 -0.7933533402912428
  outer loop
    vertex 0.12500000000000178 0.169194173824172 0.5101365566366685
    vertex 1.7763568394002505e-15 0.15625000000001066 0.5200689705490367
    vertex 1.3322676295501878e-15 0.16919417382417024 0.5101365566366685
  endloop
endfacet
facet normal 4.381825386149858e-15 -0.6087614290087107 -0.7933533402912428
  outer loop
    vertex 1.7763568394002505e-15 0.15625000000001066 0.5200689705490367
    vertex 0.12500000000000178 0.169194173824172 0.5101365566366685
    vertex 0.12500000000000178 0.15625000000001243 0.5200689705490367
  endloop
endfacet
facet normal 5.7105060225902395e-15 -0.7933533402912263 -0.6087614290087324
  outer loop
    vertex 0.12500000000000178 0.169194173824172 0.5101365566366685
    vertex 1.3322676295501878e-15 0.17912658773653867 0.4971923828125093
    vertex 0.12500000000000178 0.17912658773654044 0.4971923828125093
  endloop
endfacet
facet normal 5.7105060225902395e-15 -0.7933533402912263 -0.6087614290087324
  outer loop
    vertex 1.3322676295501878e-15 0.17912658773653867 0.4971923828125093
    vertex 0.12500000000000178 0.169194173824172 0.5101365566366685
    vertex 1.3322676295501878e-15 0.16919417382417024 0.5101365566366685
  endloop
endfacet
facet normal 6.650025110648668e-15 -0.9238795325113034 -0.38268343236505
  outer loop
    vertex 0.12500000000000178 0.17912658773654044 0.4971923828125093
    vertex 1.3322676295501878e-15 0.18537036414307728 0.4821185731314168
    vertex 0.12500000000000178 0.18537036414307906 0.4821185731314168
  endloop
endfacet
facet normal 6.650025110648668e-15 -0.9238795325113034 -0.38268343236505
  outer loop
    vertex 1.3322676295501878e-15 0.18537036414307728 0.4821185731314168
    vertex 0.12500000000000178 0.17912658773654044 0.4971923828125093
    vertex 1.3322676295501878e-15 0.17912658773653867 0.4971923828125093
  endloop
endfacet
facet normal 7.136355977102192e-15 -0.9914448613738092 -0.1305261922200607
  outer loop
    vertex 0.12500000000000178 0.18537036414307906 0.4821185731314168
    vertex 1.3322676295501878e-15 0.18750000000001066 0.4659423828125093
    vertex 0.12500000000000178 0.18750000000001243 0.4659423828125093
  endloop
endfacet
facet normal 7.136355977102192e-15 -0.9914448613738092 -0.1305261922200607
  outer loop
    vertex 1.3322676295501878e-15 0.18750000000001066 0.4659423828125093
    vertex 0.12500000000000178 0.18537036414307906 0.4821185731314168
    vertex 1.3322676295501878e-15 0.18537036414307728 0.4821185731314168
  endloop
endfacet
facet normal 7.136355977102192e-15 -0.9914448613738092 0.1305261922200607
  outer loop
    vertex 0.12500000000000178 0.18750000000001243 0.4659423828125093
    vertex 1.3322676295501878e-15 0.18537036414307728 0.44976619249360184
    vertex 0.12500000000000178 0.18537036414307906 0.44976619249360184
  endloop
endfacet
facet normal 7.136355977102192e-15 -0.9914448613738092 0.1305261922200607
  outer loop
    vertex 1.3322676295501878e-15 0.18537036414307728 0.44976619249360184
    vertex 0.12500000000000178 0.18750000000001243 0.4659423828125093
    vertex 1.3322676295501878e-15 0.18750000000001066 0.4659423828125093
  endloop
endfacet
facet normal 6.650025110648668e-15 -0.9238795325113034 0.38268343236505
  outer loop
    vertex 0.12500000000000178 0.18537036414307906 0.44976619249360184
    vertex 1.3322676295501878e-15 0.17912658773653867 0.4346923828125093
    vertex 0.12500000000000178 0.17912658773654044 0.4346923828125093
  endloop
endfacet
facet normal 6.650025110648668e-15 -0.9238795325113034 0.38268343236505
  outer loop
    vertex 1.3322676295501878e-15 0.17912658773653867 0.4346923828125093
    vertex 0.12500000000000178 0.18537036414307906 0.44976619249360184
    vertex 1.3322676295501878e-15 0.18537036414307728 0.44976619249360184
  endloop
endfacet
facet normal 5.7105060225902395e-15 -0.7933533402912263 0.6087614290087324
  outer loop
    vertex 0.12500000000000178 0.17912658773654044 0.4346923828125093
    vertex 1.3322676295501878e-15 0.16919417382417024 0.4217482089883502
    vertex 0.12500000000000178 0.169194173824172 0.4217482089883502
  endloop
endfacet
facet normal 5.7105060225902395e-15 -0.7933533402912263 0.6087614290087324
  outer loop
    vertex 1.3322676295501878e-15 0.16919417382417024 0.4217482089883502
    vertex 0.12500000000000178 0.17912658773654044 0.4346923828125093
    vertex 1.3322676295501878e-15 0.17912658773653867 0.4346923828125093
  endloop
endfacet
facet normal 4.381825386149858e-15 -0.6087614290087107 0.7933533402912428
  outer loop
    vertex 1.7763568394002505e-15 0.15625000000001066 0.411815795075982
    vertex 0.12500000000000178 0.169194173824172 0.4217482089883502
    vertex 1.3322676295501878e-15 0.16919417382417024 0.4217482089883502
  endloop
endfacet
facet normal 4.381825386149858e-15 -0.6087614290087107 0.7933533402912428
  outer loop
    vertex 0.12500000000000178 0.169194173824172 0.4217482089883502
    vertex 1.7763568394002505e-15 0.15625000000001066 0.411815795075982
    vertex 0.12500000000000178 0.15625000000001243 0.411815795075982
  endloop
endfacet
facet normal 2.7545305909522495e-15 -0.3826834323650868 0.923879532511288
  outer loop
    vertex 0.12500000000000178 0.14117619031891948 0.4055720186694425
    vertex 1.7763568394002505e-15 0.15625000000001066 0.411815795075982
    vertex 1.7763568394002505e-15 0.1411761903189177 0.4055720186694425
  endloop
endfacet
facet normal 2.7545305909522495e-15 -0.3826834323650868 0.923879532511288
  outer loop
    vertex 1.7763568394002505e-15 0.15625000000001066 0.411815795075982
    vertex 0.12500000000000178 0.14117619031891948 0.4055720186694425
    vertex 0.12500000000000178 0.15625000000001243 0.411815795075982
  endloop
endfacet
facet normal 9.395190880582405e-16 -0.13052619222005088 0.9914448613738106
  outer loop
    vertex 0.12500000000000178 0.12500000000001243 0.4034423828125093
    vertex 1.7763568394002505e-15 0.1411761903189177 0.4055720186694425
    vertex 1.7763568394002505e-15 0.12500000000001066 0.4034423828125093
  endloop
endfacet
facet normal 9.395190880582405e-16 -0.13052619222005088 0.9914448613738106
  outer loop
    vertex 1.7763568394002505e-15 0.1411761903189177 0.4055720186694425
    vertex 0.12500000000000178 0.12500000000001243 0.4034423828125093
    vertex 0.12500000000000178 0.14117619031891948 0.4055720186694425
  endloop
endfacet
endsolid PassiveBracket_p2
