solid WheelToPanelAdapter
facet normal 0.0 0.0 -1.0
  outer loop
    vertex -0.7244443697168012 0.19411428382689072 0.0
    vertex -0.7244443697168013 -0.19411428382689047 0.0
    vertex -0.75 4.592425496802574e-17 0.0
  endloop
endfacet
facet normal 0.0 0.0 -1.0
  outer loop
    vertex -0.7244443697168013 -0.19411428382689047 0.0
    vertex -0.7244443697168012 0.19411428382689072 0.0
    vertex -0.649519052838329 -0.37499999999999983 0.0
  endloop
endfacet
facet normal 0.0 0.0 -1.0
  outer loop
    vertex -0.649519052838329 -0.37499999999999983 0.0
    vertex -0.7244443697168012 0.19411428382689072 0.0
    vertex -0.649519052838329 0.3750000000000001 0.0
  endloop
endfacet
facet normal 0.0 0.0 -1.0
  outer loop
    vertex -0.649519052838329 -0.37499999999999983 0.0
    vertex -0.649519052838329 0.3750000000000001 0.0
    vertex -0.5303300858899107 0.5303300858899107 0.0
  endloop
endfacet
facet normal 0.0 0.0 -1.0
  outer loop
    vertex -0.649519052838329 -0.37499999999999983 0.0
    vertex -0.5303300858899107 0.5303300858899107 0.0
    vertex -0.5303300858899107 -0.5303300858899106 0.0
  endloop
endfacet
facet normal 0.0 0.0 -1.0
  outer loop
    vertex -0.5303300858899107 -0.5303300858899106 0.0
    vertex -0.5303300858899107 0.5303300858899107 0.0
    vertex -0.37499999999999994 0.649519052838329 0.0
  endloop
endfacet
facet normal 0.0 0.0 -1.0
  outer loop
    vertex -0.5303300858899107 -0.5303300858899106 0.0
    vertex -0.37499999999999994 0.649519052838329 0.0
    vertex -0.3750000000000002 -0.6495190528383289 0.0
  endloop
endfacet
facet normal 0.0 0.0 -1.0
  outer loop
    vertex -0.3750000000000002 -0.6495190528383289 0.0
    vertex -0.37499999999999994 0.649519052838329 0.0
    vertex -0.19411428382689078 -0.7244443697168012 0.0
  endloop
endfacet
facet normal 0.0 0.0 -1.0
  outer loop
    vertex -0.19411428382689078 -0.7244443697168012 0.0
    vertex -0.37499999999999994 0.649519052838329 0.0
    vertex -0.19411428382689055 0.7244443697168013 0.0
  endloop
endfacet
facet normal 0.0 0.0 -1.0
  outer loop
    vertex -0.19411428382689078 -0.7244443697168012 0.0
    vertex -0.19411428382689055 0.7244443697168013 0.0
    vertex -9.184850993605148e-17 -0.75 0.0
  endloop
endfacet
facet normal 0.0 0.0 -1.0
  outer loop
    vertex -9.184850993605148e-17 -0.75 0.0
    vertex -0.19411428382689055 0.7244443697168013 0.0
    vertex 0.0 0.75 0.0
  endloop
endfacet
facet normal 0.0 0.0 -1.0
  outer loop
    vertex -9.184850993605148e-17 -0.75 0.0
    vertex 0.0 0.75 0.0
    vertex 0.19411428382689028 -0.7244443697168013 0.0
  endloop
endfacet
facet normal 0.0 0.0 -1.0
  outer loop
    vertex 0.19411428382689028 -0.7244443697168013 0.0
    vertex 0.0 0.75 0.0
    vertex 0.19411428382689117 0.724444369716801 0.0
  endloop
endfacet
facet normal 0.0 0.0 -1.0
  outer loop
    vertex 0.19411428382689028 -0.7244443697168013 0.0
    vertex 0.19411428382689117 0.724444369716801 0.0
    vertex 0.3749999999999998 -0.6495190528383291 0.0
  endloop
endfacet
facet normal 0.0 0.0 -1.0
  outer loop
    vertex 0.3749999999999998 -0.6495190528383291 0.0
    vertex 0.19411428382689117 0.724444369716801 0.0
    vertex 0.37500000000000033 0.6495190528383288 0.0
  endloop
endfacet
facet normal 0.0 0.0 -1.0
  outer loop
    vertex 0.3749999999999998 -0.6495190528383291 0.0
    vertex 0.37500000000000033 0.6495190528383288 0.0
    vertex 0.5303300858899104 -0.5303300858899109 0.0
  endloop
endfacet
facet normal 0.0 0.0 -1.0
  outer loop
    vertex 0.5303300858899104 -0.5303300858899109 0.0
    vertex 0.37500000000000033 0.6495190528383288 0.0
    vertex 0.5303300858899107 0.5303300858899105 0.0
  endloop
endfacet
facet normal 0.0 0.0 -1.0
  outer loop
    vertex 0.5303300858899104 -0.5303300858899109 0.0
    vertex 0.5303300858899107 0.5303300858899105 0.0
    vertex 0.6495190528383289 -0.37500000000000033 0.0
  endloop
endfacet
facet normal 0.0 0.0 -1.0
  outer loop
    vertex 0.6495190528383289 -0.37500000000000033 0.0
    vertex 0.5303300858899107 0.5303300858899105 0.0
    vertex 0.6495190528383292 0.3749999999999995 0.0
  endloop
endfacet
facet normal 0.0 0.0 -1.0
  outer loop
    vertex 0.6495190528383289 -0.37500000000000033 0.0
    vertex 0.6495190528383292 0.3749999999999995 0.0
    vertex 0.724444369716801 -0.19411428382689114 0.0
  endloop
endfacet
facet normal 0.0 0.0 -1.0
  outer loop
    vertex 0.724444369716801 -0.19411428382689114 0.0
    vertex 0.6495190528383292 0.3749999999999995 0.0
    vertex 0.7244443697168013 0.19411428382689022 0.0
  endloop
endfacet
facet normal 0.0 0.0 -1.0
  outer loop
    vertex 0.724444369716801 -0.19411428382689114 0.0
    vertex 0.7244443697168013 0.19411428382689022 0.0
    vertex 0.75 -1.3777276490407724e-16 0.0
  endloop
endfacet
facet normal -0.0 -0.0 1.0
  outer loop
    vertex -0.7244443697168013 -0.19411428382689047 0.125
    vertex -0.7244443697168012 0.19411428382689072 0.125
    vertex -0.75 4.592425496802574e-17 0.125
  endloop
endfacet
facet normal -0.0 -0.0 1.0
  outer loop
    vertex -0.7244443697168012 0.19411428382689072 0.125
    vertex -0.7244443697168013 -0.19411428382689047 0.125
    vertex -0.649519052838329 -0.37499999999999983 0.125
  endloop
endfacet
facet normal -0.0 -0.0 1.0
  outer loop
    vertex -0.7244443697168012 0.19411428382689072 0.125
    vertex -0.649519052838329 -0.37499999999999983 0.125
    vertex -0.649519052838329 0.3750000000000001 0.125
  endloop
endfacet
facet normal -0.0 -0.0 1.0
  outer loop
    vertex -0.649519052838329 0.3750000000000001 0.125
    vertex -0.649519052838329 -0.37499999999999983 0.125
    vertex -0.5303300858899107 -0.5303300858899106 0.125
  endloop
endfacet
facet normal -0.0 -0.0 1.0
  outer loop
    vertex -0.649519052838329 0.3750000000000001 0.125
    vertex -0.5303300858899107 -0.5303300858899106 0.125
    vertex -0.5303300858899107 0.5303300858899107 0.125
  endloop
endfacet
facet normal -0.0 -0.0 1.0
  outer loop
    vertex -0.5303300858899107 0.5303300858899107 0.125
    vertex -0.5303300858899107 -0.5303300858899106 0.125
    vertex -0.3750000000000002 -0.6495190528383289 0.125
  endloop
endfacet
facet normal -0.0 -0.0 1.0
  outer loop
    vertex -0.5303300858899107 0.5303300858899107 0.125
    vertex -0.3750000000000002 -0.6495190528383289 0.125
    vertex -0.37499999999999994 0.649519052838329 0.125
  endloop
endfacet
facet normal -0.0 -0.0 1.0
  outer loop
    vertex -0.37499999999999994 0.649519052838329 0.125
    vertex -0.3750000000000002 -0.6495190528383289 0.125
    vertex -0.19411428382689078 -0.7244443697168012 0.125
  endloop
endfacet
facet normal -0.0 -0.0 1.0
  outer loop
    vertex -0.37499999999999994 0.649519052838329 0.125
    vertex -0.19411428382689078 -0.7244443697168012 0.125
    vertex -0.25000000000000006 -3.0616169978683824e-17 0.125
  endloop
endfacet
facet normal -0.0 -0.0 1.0
  outer loop
    vertex -0.25000000000000006 -3.0616169978683824e-17 0.125
    vertex -0.19411428382689078 -0.7244443697168012 0.125
    vertex -0.24148145657226708 -0.06470476127563037 0.125
  endloop
endfacet
facet normal -0.0 -0.0 1.0
  outer loop
    vertex -0.24148145657226708 -0.06470476127563037 0.125
    vertex -0.19411428382689078 -0.7244443697168012 0.125
    vertex -0.21650635094610968 -0.1250000000000001 0.125
  endloop
endfacet
facet normal -0.0 -0.0 1.0
  outer loop
    vertex -0.21650635094610968 -0.1250000000000001 0.125
    vertex -0.19411428382689078 -0.7244443697168012 0.125
    vertex -0.17677669529663684 -0.17677669529663698 0.125
  endloop
endfacet
facet normal -0.0 -0.0 1.0
  outer loop
    vertex -0.17677669529663684 -0.17677669529663698 0.125
    vertex -0.19411428382689078 -0.7244443697168012 0.125
    vertex -9.184850993605148e-17 -0.75 0.125
  endloop
endfacet
facet normal -0.0 -0.0 1.0
  outer loop
    vertex -0.17677669529663684 -0.17677669529663698 0.125
    vertex -9.184850993605148e-17 -0.75 0.125
    vertex -0.12499999999999999 -0.2165063509461097 0.125
  endloop
endfacet
facet normal -0.0 -0.0 1.0
  outer loop
    vertex -0.12499999999999999 -0.2165063509461097 0.125
    vertex -9.184850993605148e-17 -0.75 0.125
    vertex -0.06470476127563014 -0.2414814565722671 0.125
  endloop
endfacet
facet normal -0.0 -0.0 1.0
  outer loop
    vertex -0.06470476127563014 -0.2414814565722671 0.125
    vertex -9.184850993605148e-17 -0.75 0.125
    vertex -3.061616997868383e-17 -0.25 0.125
  endloop
endfacet
facet normal -0.0 -0.0 1.0
  outer loop
    vertex -3.061616997868383e-17 -0.25 0.125
    vertex -9.184850993605148e-17 -0.75 0.125
    vertex 0.19411428382689028 -0.7244443697168013 0.125
  endloop
endfacet
facet normal -0.0 -0.0 1.0
  outer loop
    vertex -3.061616997868383e-17 -0.25 0.125
    vertex 0.19411428382689028 -0.7244443697168013 0.125
    vertex 0.0647047612756302 -0.24148145657226705 0.125
  endloop
endfacet
facet normal -0.0 -0.0 1.0
  outer loop
    vertex 0.0647047612756302 -0.24148145657226705 0.125
    vertex 0.19411428382689028 -0.7244443697168013 0.125
    vertex 0.12500000000000003 -0.21650635094610962 0.125
  endloop
endfacet
facet normal -0.0 -0.0 1.0
  outer loop
    vertex 0.12500000000000003 -0.21650635094610962 0.125
    vertex 0.19411428382689028 -0.7244443697168013 0.125
    vertex 0.17677669529663684 -0.17677669529663687 0.125
  endloop
endfacet
facet normal -0.0 -0.0 1.0
  outer loop
    vertex 0.17677669529663684 -0.17677669529663687 0.125
    vertex 0.19411428382689028 -0.7244443697168013 0.125
    vertex 0.21650635094610962 -0.12499999999999996 0.125
  endloop
endfacet
facet normal -0.0 -0.0 1.0
  outer loop
    vertex 0.21650635094610962 -0.12499999999999996 0.125
    vertex 0.19411428382689028 -0.7244443697168013 0.125
    vertex 0.3749999999999998 -0.6495190528383291 0.125
  endloop
endfacet
facet normal -0.0 -0.0 1.0
  outer loop
    vertex 0.21650635094610962 -0.12499999999999996 0.125
    vertex 0.3749999999999998 -0.6495190528383291 0.125
    vertex 0.24148145657226702 -0.06470476127563017 0.125
  endloop
endfacet
facet normal -0.0 -0.0 1.0
  outer loop
    vertex 0.24148145657226702 -0.06470476127563017 0.125
    vertex 0.3749999999999998 -0.6495190528383291 0.125
    vertex 0.24999999999999994 -3.0814879110195774e-33 0.125
  endloop
endfacet
facet normal -0.0 -0.0 1.0
  outer loop
    vertex -0.25000000000000006 -3.0616169978683824e-17 0.125
    vertex -0.19411428382689055 0.7244443697168013 0.125
    vertex -0.37499999999999994 0.649519052838329 0.125
  endloop
endfacet
facet normal -0.0 -0.0 1.0
  outer loop
    vertex -0.19411428382689055 0.7244443697168013 0.125
    vertex -0.25000000000000006 -3.0616169978683824e-17 0.125
    vertex -0.24148145657226716 0.06470476127563009 0.125
  endloop
endfacet
facet normal -0.0 -0.0 1.0
  outer loop
    vertex -0.19411428382689055 0.7244443697168013 0.125
    vertex -0.24148145657226716 0.06470476127563009 0.125
    vertex -0.21650635094610982 0.12499999999999985 0.125
  endloop
endfacet
facet normal -0.0 -0.0 1.0
  outer loop
    vertex -0.19411428382689055 0.7244443697168013 0.125
    vertex -0.21650635094610982 0.12499999999999985 0.125
    vertex -0.17677669529663698 0.17677669529663684 0.125
  endloop
endfacet
facet normal -0.0 -0.0 1.0
  outer loop
    vertex -0.19411428382689055 0.7244443697168013 0.125
    vertex -0.17677669529663698 0.17677669529663684 0.125
    vertex 0.0 0.75 0.125
  endloop
endfacet
facet normal -0.0 -0.0 1.0
  outer loop
    vertex 0.0 0.75 0.125
    vertex -0.17677669529663698 0.17677669529663684 0.125
    vertex -0.12500000000000017 0.2165063509461096 0.125
  endloop
endfacet
facet normal -0.0 -0.0 1.0
  outer loop
    vertex 0.0 0.75 0.125
    vertex -0.12500000000000017 0.2165063509461096 0.125
    vertex -0.06470476127563042 0.24148145657226702 0.125
  endloop
endfacet
facet normal -0.0 -0.0 1.0
  outer loop
    vertex 0.0 0.75 0.125
    vertex -0.06470476127563042 0.24148145657226702 0.125
    vertex -3.0616169978683824e-17 0.25 0.125
  endloop
endfacet
facet normal -0.0 -0.0 1.0
  outer loop
    vertex 0.0 0.75 0.125
    vertex -3.0616169978683824e-17 0.25 0.125
    vertex 0.06470476127563016 0.24148145657226708 0.125
  endloop
endfacet
facet normal -0.0 -0.0 1.0
  outer loop
    vertex 0.0 0.75 0.125
    vertex 0.06470476127563016 0.24148145657226708 0.125
    vertex 0.19411428382689117 0.724444369716801 0.125
  endloop
endfacet
facet normal -0.0 -0.0 1.0
  outer loop
    vertex 0.19411428382689117 0.724444369716801 0.125
    vertex 0.06470476127563016 0.24148145657226708 0.125
    vertex 0.12499999999999996 0.21650635094610968 0.125
  endloop
endfacet
facet normal -0.0 -0.0 1.0
  outer loop
    vertex 0.19411428382689117 0.724444369716801 0.125
    vertex 0.12499999999999996 0.21650635094610968 0.125
    vertex 0.17677669529663684 0.1767766952966369 0.125
  endloop
endfacet
facet normal -0.0 -0.0 1.0
  outer loop
    vertex 0.19411428382689117 0.724444369716801 0.125
    vertex 0.17677669529663684 0.1767766952966369 0.125
    vertex 0.2165063509461096 0.12500000000000003 0.125
  endloop
endfacet
facet normal -0.0 -0.0 1.0
  outer loop
    vertex 0.19411428382689117 0.724444369716801 0.125
    vertex 0.2165063509461096 0.12500000000000003 0.125
    vertex 0.37500000000000033 0.6495190528383288 0.125
  endloop
endfacet
facet normal -0.0 -0.0 1.0
  outer loop
    vertex 0.37500000000000033 0.6495190528383288 0.125
    vertex 0.2165063509461096 0.12500000000000003 0.125
    vertex 0.241481456572267 0.06470476127563023 0.125
  endloop
endfacet
facet normal -0.0 -0.0 1.0
  outer loop
    vertex 0.37500000000000033 0.6495190528383288 0.125
    vertex 0.241481456572267 0.06470476127563023 0.125
    vertex 0.24999999999999994 -3.0814879110195774e-33 0.125
  endloop
endfacet
facet normal -0.0 -0.0 1.0
  outer loop
    vertex 0.37500000000000033 0.6495190528383288 0.125
    vertex 0.24999999999999994 -3.0814879110195774e-33 0.125
    vertex 0.3749999999999998 -0.6495190528383291 0.125
  endloop
endfacet
facet normal -0.0 -0.0 1.0
  outer loop
    vertex 0.37500000000000033 0.6495190528383288 0.125
    vertex 0.3749999999999998 -0.6495190528383291 0.125
    vertex 0.5303300858899104 -0.5303300858899109 0.125
  endloop
endfacet
facet normal -0.0 -0.0 1.0
  outer loop
    vertex 0.37500000000000033 0.6495190528383288 0.125
    vertex 0.5303300858899104 -0.5303300858899109 0.125
    vertex 0.5303300858899107 0.5303300858899105 0.125
  endloop
endfacet
facet normal -0.0 -0.0 1.0
  outer loop
    vertex 0.5303300858899107 0.5303300858899105 0.125
    vertex 0.5303300858899104 -0.5303300858899109 0.125
    vertex 0.6495190528383289 -0.37500000000000033 0.125
  endloop
endfacet
facet normal -0.0 -0.0 1.0
  outer loop
    vertex 0.5303300858899107 0.5303300858899105 0.125
    vertex 0.6495190528383289 -0.37500000000000033 0.125
    vertex 0.6495190528383292 0.3749999999999995 0.125
  endloop
endfacet
facet normal -0.0 -0.0 1.0
  outer loop
    vertex 0.6495190528383292 0.3749999999999995 0.125
    vertex 0.6495190528383289 -0.37500000000000033 0.125
    vertex 0.724444369716801 -0.19411428382689114 0.125
  endloop
endfacet
facet normal -0.0 -0.0 1.0
  outer loop
    vertex 0.6495190528383292 0.3749999999999995 0.125
    vertex 0.724444369716801 -0.19411428382689114 0.125
    vertex 0.7244443697168013 0.19411428382689022 0.125
  endloop
endfacet
facet normal -0.0 -0.0 1.0
  outer loop
    vertex 0.7244443697168013 0.19411428382689022 0.125
    vertex 0.724444369716801 -0.19411428382689114 0.125
    vertex 0.75 -1.3777276490407724e-16 0.125
  endloop
endfacet
facet normal -0.13052619222005138 0.9914448613738105 0.0
  outer loop
    vertex -0.19411428382689055 0.7244443697168013 0.125
    vertex 0.0 0.75 0.0
    vertex -0.19411428382689055 0.7244443697168013 0.0
  endloop
endfacet
facet normal -0.13052619222005138 0.9914448613738105 0.0
  outer loop
    vertex 0.0 0.75 0.0
    vertex -0.19411428382689055 0.7244443697168013 0.125
    vertex 0.0 0.75 0.125
  endloop
endfacet
facet normal 0.1305261922200521 0.9914448613738105 0.0
  outer loop
    vertex 0.0 0.75 0.125
    vertex 0.19411428382689117 0.724444369716801 0.0
    vertex 0.0 0.75 0.0
  endloop
endfacet
facet normal 0.1305261922200521 0.9914448613738105 0.0
  outer loop
    vertex 0.19411428382689117 0.724444369716801 0.0
    vertex 0.0 0.75 0.125
    vertex 0.19411428382689117 0.724444369716801 0.125
  endloop
endfacet
facet normal 0.3826834323650904 0.9238795325112865 0.0
  outer loop
    vertex 0.19411428382689117 0.724444369716801 0.125
    vertex 0.37500000000000033 0.6495190528383288 0.0
    vertex 0.19411428382689117 0.724444369716801 0.0
  endloop
endfacet
facet normal 0.3826834323650904 0.9238795325112865 0.0
  outer loop
    vertex 0.37500000000000033 0.6495190528383288 0.0
    vertex 0.19411428382689117 0.724444369716801 0.125
    vertex 0.37500000000000033 0.6495190528383288 0.125
  endloop
endfacet
facet normal 0.6087614290087212 0.7933533402912349 0.0
  outer loop
    vertex 0.37500000000000033 0.6495190528383288 0.125
    vertex 0.5303300858899107 0.5303300858899105 0.0
    vertex 0.37500000000000033 0.6495190528383288 0.0
  endloop
endfacet
facet normal 0.6087614290087212 0.7933533402912349 0.0
  outer loop
    vertex 0.5303300858899107 0.5303300858899105 0.0
    vertex 0.37500000000000033 0.6495190528383288 0.125
    vertex 0.5303300858899107 0.5303300858899105 0.125
  endloop
endfacet
facet normal 0.7933533402912355 0.6087614290087204 0.0
  outer loop
    vertex 0.5303300858899107 0.5303300858899105 0.0
    vertex 0.6495190528383292 0.3749999999999995 0.125
    vertex 0.6495190528383292 0.3749999999999995 0.0
  endloop
endfacet
facet normal 0.7933533402912355 0.6087614290087204 0.0
  outer loop
    vertex 0.6495190528383292 0.3749999999999995 0.125
    vertex 0.5303300858899107 0.5303300858899105 0.0
    vertex 0.5303300858899107 0.5303300858899105 0.125
  endloop
endfacet
facet normal 0.9238795325112871 0.3826834323650892 0.0
  outer loop
    vertex 0.6495190528383292 0.3749999999999995 0.0
    vertex 0.7244443697168013 0.19411428382689022 0.125
    vertex 0.7244443697168013 0.19411428382689022 0.0
  endloop
endfacet
facet normal 0.9238795325112871 0.3826834323650892 0.0
  outer loop
    vertex 0.7244443697168013 0.19411428382689022 0.125
    vertex 0.6495190528383292 0.3749999999999995 0.0
    vertex 0.6495190528383292 0.3749999999999995 0.125
  endloop
endfacet
facet normal 0.9914448613738105 0.13052619222005152 0.0
  outer loop
    vertex 0.7244443697168013 0.19411428382689022 0.0
    vertex 0.75 -1.3777276490407724e-16 0.125
    vertex 0.75 -1.3777276490407724e-16 0.0
  endloop
endfacet
facet normal 0.9914448613738105 0.13052619222005152 0.0
  outer loop
    vertex 0.75 -1.3777276490407724e-16 0.125
    vertex 0.7244443697168013 0.19411428382689022 0.0
    vertex 0.7244443697168013 0.19411428382689022 0.125
  endloop
endfacet
facet normal 0.9914448613738105 -0.1305261922200522 0.0
  outer loop
    vertex 0.75 -1.3777276490407724e-16 0.0
    vertex 0.724444369716801 -0.19411428382689114 0.125
    vertex 0.724444369716801 -0.19411428382689114 0.0
  endloop
endfacet
facet normal 0.9914448613738105 -0.1305261922200522 0.0
  outer loop
    vertex 0.724444369716801 -0.19411428382689114 0.125
    vertex 0.75 -1.3777276490407724e-16 0.0
    vertex 0.75 -1.3777276490407724e-16 0.125
  endloop
endfacet
facet normal 0.9238795325112868 -0.3826834323650899 0.0
  outer loop
    vertex 0.724444369716801 -0.19411428382689114 0.0
    vertex 0.6495190528383289 -0.37500000000000033 0.125
    vertex 0.6495190528383289 -0.37500000000000033 0.0
  endloop
endfacet
facet normal 0.9238795325112868 -0.3826834323650899 0.0
  outer loop
    vertex 0.6495190528383289 -0.37500000000000033 0.125
    vertex 0.724444369716801 -0.19411428382689114 0.0
    vertex 0.724444369716801 -0.19411428382689114 0.125
  endloop
endfacet
facet normal 0.7933533402912346 -0.6087614290087213 0.0
  outer loop
    vertex 0.6495190528383289 -0.37500000000000033 0.0
    vertex 0.5303300858899104 -0.5303300858899109 0.125
    vertex 0.5303300858899104 -0.5303300858899109 0.0
  endloop
endfacet
facet normal 0.7933533402912346 -0.6087614290087213 0.0
  outer loop
    vertex 0.5303300858899104 -0.5303300858899109 0.125
    vertex 0.6495190528383289 -0.37500000000000033 0.0
    vertex 0.6495190528383289 -0.37500000000000033 0.125
  endloop
endfacet
facet normal 0.6087614290087202 -0.7933533402912355 0.0
  outer loop
    vertex 0.5303300858899104 -0.5303300858899109 0.125
    vertex 0.3749999999999998 -0.6495190528383291 0.0
    vertex 0.5303300858899104 -0.5303300858899109 0.0
  endloop
endfacet
facet normal 0.6087614290087202 -0.7933533402912355 0.0
  outer loop
    vertex 0.3749999999999998 -0.6495190528383291 0.0
    vertex 0.5303300858899104 -0.5303300858899109 0.125
    vertex 0.3749999999999998 -0.6495190528383291 0.125
  endloop
endfacet
facet normal 0.3826834323650893 -0.923879532511287 0.0
  outer loop
    vertex 0.3749999999999998 -0.6495190528383291 0.125
    vertex 0.19411428382689028 -0.7244443697168013 0.0
    vertex 0.3749999999999998 -0.6495190528383291 0.0
  endloop
endfacet
facet normal 0.3826834323650893 -0.923879532511287 0.0
  outer loop
    vertex 0.19411428382689028 -0.7244443697168013 0.0
    vertex 0.3749999999999998 -0.6495190528383291 0.125
    vertex 0.19411428382689028 -0.7244443697168013 0.125
  endloop
endfacet
facet normal 0.13052619222005152 -0.9914448613738105 0.0
  outer loop
    vertex 0.19411428382689028 -0.7244443697168013 0.125
    vertex -9.184850993605148e-17 -0.75 0.0
    vertex 0.19411428382689028 -0.7244443697168013 0.0
  endloop
endfacet
facet normal 0.13052619222005152 -0.9914448613738105 0.0
  outer loop
    vertex -9.184850993605148e-17 -0.75 0.0
    vertex 0.19411428382689028 -0.7244443697168013 0.125
    vertex -9.184850993605148e-17 -0.75 0.125
  endloop
endfacet
facet normal -0.13052619222005185 -0.9914448613738105 -0.0
  outer loop
    vertex -9.184850993605148e-17 -0.75 0.125
    vertex -0.19411428382689078 -0.7244443697168012 0.0
    vertex -9.184850993605148e-17 -0.75 0.0
  endloop
endfacet
facet normal -0.13052619222005185 -0.9914448613738105 -0.0
  outer loop
    vertex -0.19411428382689078 -0.7244443697168012 0.0
    vertex -9.184850993605148e-17 -0.75 0.125
    vertex -0.19411428382689078 -0.7244443697168012 0.125
  endloop
endfacet
facet normal -0.38268343236508995 -0.9238795325112868 -0.0
  outer loop
    vertex -0.19411428382689078 -0.7244443697168012 0.125
    vertex -0.3750000000000002 -0.6495190528383289 0.0
    vertex -0.19411428382689078 -0.7244443697168012 0.0
  endloop
endfacet
facet normal -0.38268343236508995 -0.9238795325112868 -0.0
  outer loop
    vertex -0.3750000000000002 -0.6495190528383289 0.0
    vertex -0.19411428382689078 -0.7244443697168012 0.125
    vertex -0.3750000000000002 -0.6495190528383289 0.125
  endloop
endfacet
facet normal -0.6087614290087209 -0.7933533402912352 -0.0
  outer loop
    vertex -0.3750000000000002 -0.6495190528383289 0.125
    vertex -0.5303300858899107 -0.5303300858899106 0.0
    vertex -0.3750000000000002 -0.6495190528383289 0.0
  endloop
endfacet
facet normal -0.6087614290087209 -0.7933533402912352 -0.0
  outer loop
    vertex -0.5303300858899107 -0.5303300858899106 0.0
    vertex -0.3750000000000002 -0.6495190528383289 0.125
    vertex -0.5303300858899107 -0.5303300858899106 0.125
  endloop
endfacet
facet normal -0.7933533402912355 -0.6087614290087202 -0.0
  outer loop
    vertex -0.649519052838329 -0.37499999999999983 0.125
    vertex -0.5303300858899107 -0.5303300858899106 0.0
    vertex -0.5303300858899107 -0.5303300858899106 0.125
  endloop
endfacet
facet normal -0.7933533402912355 -0.6087614290087202 -0.0
  outer loop
    vertex -0.5303300858899107 -0.5303300858899106 0.0
    vertex -0.649519052838329 -0.37499999999999983 0.125
    vertex -0.649519052838329 -0.37499999999999983 0.0
  endloop
endfacet
facet normal -0.9238795325112867 -0.3826834323650901 -0.0
  outer loop
    vertex -0.7244443697168013 -0.19411428382689047 0.125
    vertex -0.649519052838329 -0.37499999999999983 0.0
    vertex -0.649519052838329 -0.37499999999999983 0.125
  endloop
endfacet
facet normal -0.9238795325112867 -0.3826834323650901 -0.0
  outer loop
    vertex -0.649519052838329 -0.37499999999999983 0.0
    vertex -0.7244443697168013 -0.19411428382689047 0.125
    vertex -0.7244443697168013 -0.19411428382689047 0.0
  endloop
endfacet
facet normal -0.9914448613738105 -0.1305261922200514 -0.0
  outer loop
    vertex -0.75 4.592425496802574e-17 0.125
    vertex -0.7244443697168013 -0.19411428382689047 0.0
    vertex -0.7244443697168013 -0.19411428382689047 0.125
  endloop
endfacet
facet normal -0.9914448613738105 -0.1305261922200514 -0.0
  outer loop
    vertex -0.7244443697168013 -0.19411428382689047 0.0
    vertex -0.75 4.592425496802574e-17 0.125
    vertex -0.75 4.592425496802574e-17 0.0
  endloop
endfacet
facet normal -0.9914448613738104 0.13052619222005185 0.0
  outer loop
    vertex -0.7244443697168012 0.19411428382689072 0.125
    vertex -0.75 4.592425496802574e-17 0.0
    vertex -0.75 4.592425496802574e-17 0.125
  endloop
endfacet
facet normal -0.9914448613738104 0.13052619222005185 0.0
  outer loop
    vertex -0.75 4.592425496802574e-17 0.0
    vertex -0.7244443697168012 0.19411428382689072 0.125
    vertex -0.7244443697168012 0.19411428382689072 0.0
  endloop
endfacet
facet normal -0.9238795325112868 0.38268343236508945 0.0
  outer loop
    vertex -0.649519052838329 0.3750000000000001 0.125
    vertex -0.7244443697168012 0.19411428382689072 0.0
    vertex -0.7244443697168012 0.19411428382689072 0.125
  endloop
endfacet
facet normal -0.9238795325112868 0.38268343236508945 0.0
  outer loop
    vertex -0.7244443697168012 0.19411428382689072 0.0
    vertex -0.649519052838329 0.3750000000000001 0.125
    vertex -0.649519052838329 0.3750000000000001 0.0
  endloop
endfacet
facet normal -0.7933533402912352 0.6087614290087207 0.0
  outer loop
    vertex -0.5303300858899107 0.5303300858899107 0.125
    vertex -0.649519052838329 0.3750000000000001 0.0
    vertex -0.649519052838329 0.3750000000000001 0.125
  endloop
endfacet
facet normal -0.7933533402912352 0.6087614290087207 0.0
  outer loop
    vertex -0.649519052838329 0.3750000000000001 0.0
    vertex -0.5303300858899107 0.5303300858899107 0.125
    vertex -0.5303300858899107 0.5303300858899107 0.0
  endloop
endfacet
facet normal -0.6087614290087202 0.7933533402912355 0.0
  outer loop
    vertex -0.5303300858899107 0.5303300858899107 0.125
    vertex -0.37499999999999994 0.649519052838329 0.0
    vertex -0.5303300858899107 0.5303300858899107 0.0
  endloop
endfacet
facet normal -0.6087614290087202 0.7933533402912355 0.0
  outer loop
    vertex -0.37499999999999994 0.649519052838329 0.0
    vertex -0.5303300858899107 0.5303300858899107 0.125
    vertex -0.37499999999999994 0.649519052838329 0.125
  endloop
endfacet
facet normal -0.38268343236509 0.9238795325112867 0.0
  outer loop
    vertex -0.37499999999999994 0.649519052838329 0.125
    vertex -0.19411428382689055 0.7244443697168013 0.0
    vertex -0.37499999999999994 0.649519052838329 0.0
  endloop
endfacet
facet normal -0.38268343236509 0.9238795325112867 0.0
  outer loop
    vertex -0.19411428382689055 0.7244443697168013 0.0
    vertex -0.37499999999999994 0.649519052838329 0.125
    vertex -0.19411428382689055 0.7244443697168013 0.125
  endloop
endfacet
facet normal 0.0 0.0 1.0
  outer loop
    vertex -0.24148145657226708 -0.06470476127563037 0.375
    vertex -0.24148145657226716 0.06470476127563009 0.375
    vertex -0.25000000000000006 -3.0616169978683824e-17 0.375
  endloop
endfacet
facet normal 0.0 0.0 1.0
  outer loop
    vertex -0.24148145657226716 0.06470476127563009 0.375
    vertex -0.24148145657226708 -0.06470476127563037 0.375
    vertex -0.21650635094610982 0.12499999999999985 0.375
  endloop
endfacet
facet normal 0.0 0.0 1.0
  outer loop
    vertex -0.21650635094610982 0.12499999999999985 0.375
    vertex -0.24148145657226708 -0.06470476127563037 0.375
    vertex -0.21650635094610968 -0.1250000000000001 0.375
  endloop
endfacet
facet normal 0.0 0.0 1.0
  outer loop
    vertex -0.21650635094610982 0.12499999999999985 0.375
    vertex -0.21650635094610968 -0.1250000000000001 0.375
    vertex -0.17677669529663698 0.17677669529663684 0.375
  endloop
endfacet
facet normal 0.0 0.0 1.0
  outer loop
    vertex -0.17677669529663698 0.17677669529663684 0.375
    vertex -0.21650635094610968 -0.1250000000000001 0.375
    vertex -0.17677669529663684 -0.17677669529663698 0.375
  endloop
endfacet
facet normal 0.0 0.0 1.0
  outer loop
    vertex -0.17677669529663698 0.17677669529663684 0.375
    vertex -0.17677669529663684 -0.17677669529663698 0.375
    vertex -0.12500000000000017 0.2165063509461096 0.375
  endloop
endfacet
facet normal 0.0 0.0 1.0
  outer loop
    vertex -0.12500000000000017 0.2165063509461096 0.375
    vertex -0.17677669529663684 -0.17677669529663698 0.375
    vertex -0.12499999999999999 -0.2165063509461097 0.375
  endloop
endfacet
facet normal 0.0 0.0 1.0
  outer loop
    vertex -0.12500000000000017 0.2165063509461096 0.375
    vertex -0.12499999999999999 -0.2165063509461097 0.375
    vertex -0.06470476127563042 0.24148145657226702 0.375
  endloop
endfacet
facet normal 0.0 0.0 1.0
  outer loop
    vertex -0.06470476127563042 0.24148145657226702 0.375
    vertex -0.12499999999999999 -0.2165063509461097 0.375
    vertex -0.06470476127563014 -0.2414814565722671 0.375
  endloop
endfacet
facet normal 0.0 0.0 1.0
  outer loop
    vertex -0.06470476127563042 0.24148145657226702 0.375
    vertex -0.06470476127563014 -0.2414814565722671 0.375
    vertex -3.0616169978683824e-17 0.25 0.375
  endloop
endfacet
facet normal 0.0 0.0 1.0
  outer loop
    vertex -3.0616169978683824e-17 0.25 0.375
    vertex -0.06470476127563014 -0.2414814565722671 0.375
    vertex -3.061616997868383e-17 -0.25 0.375
  endloop
endfacet
facet normal 0.0 0.0 1.0
  outer loop
    vertex -3.0616169978683824e-17 0.25 0.375
    vertex -3.061616997868383e-17 -0.25 0.375
    vertex 0.0647047612756302 -0.24148145657226705 0.375
  endloop
endfacet
facet normal 0.0 0.0 1.0
  outer loop
    vertex -3.0616169978683824e-17 0.25 0.375
    vertex 0.0647047612756302 -0.24148145657226705 0.375
    vertex 0.06470476127563016 0.24148145657226708 0.375
  endloop
endfacet
facet normal 0.0 0.0 1.0
  outer loop
    vertex 0.06470476127563016 0.24148145657226708 0.375
    vertex 0.0647047612756302 -0.24148145657226705 0.375
    vertex 0.12499999999999996 0.21650635094610968 0.375
  endloop
endfacet
facet normal 0.0 0.0 1.0
  outer loop
    vertex 0.12499999999999996 0.21650635094610968 0.375
    vertex 0.0647047612756302 -0.24148145657226705 0.375
    vertex 0.12500000000000003 -0.21650635094610962 0.375
  endloop
endfacet
facet normal 0.0 0.0 1.0
  outer loop
    vertex 0.12499999999999996 0.21650635094610968 0.375
    vertex 0.12500000000000003 -0.21650635094610962 0.375
    vertex 0.17677669529663684 0.1767766952966369 0.375
  endloop
endfacet
facet normal 0.0 0.0 1.0
  outer loop
    vertex 0.17677669529663684 0.1767766952966369 0.375
    vertex 0.12500000000000003 -0.21650635094610962 0.375
    vertex 0.17677669529663684 -0.17677669529663687 0.375
  endloop
endfacet
facet normal 0.0 0.0 1.0
  outer loop
    vertex 0.17677669529663684 0.1767766952966369 0.375
    vertex 0.17677669529663684 -0.17677669529663687 0.375
    vertex 0.21650635094610962 -0.12499999999999996 0.375
  endloop
endfacet
facet normal 0.0 0.0 1.0
  outer loop
    vertex 0.17677669529663684 0.1767766952966369 0.375
    vertex 0.21650635094610962 -0.12499999999999996 0.375
    vertex 0.2165063509461096 0.12500000000000003 0.375
  endloop
endfacet
facet normal 0.0 0.0 1.0
  outer loop
    vertex 0.2165063509461096 0.12500000000000003 0.375
    vertex 0.21650635094610962 -0.12499999999999996 0.375
    vertex 0.241481456572267 0.06470476127563023 0.375
  endloop
endfacet
facet normal 0.0 0.0 1.0
  outer loop
    vertex 0.241481456572267 0.06470476127563023 0.375
    vertex 0.21650635094610962 -0.12499999999999996 0.375
    vertex 0.24148145657226702 -0.06470476127563017 0.375
  endloop
endfacet
facet normal 0.0 0.0 1.0
  outer loop
    vertex 0.241481456572267 0.06470476127563023 0.375
    vertex 0.24148145657226702 -0.06470476127563017 0.375
    vertex 0.24999999999999994 -3.0814879110195774e-33 0.375
  endloop
endfacet
facet normal 0.13052619222005152 0.9914448613738105 0.0
  outer loop
    vertex -3.0616169978683824e-17 0.25 0.375
    vertex 0.06470476127563016 0.24148145657226708 0.125
    vertex -3.0616169978683824e-17 0.25 0.125
  endloop
endfacet
facet normal 0.13052619222005152 0.9914448613738105 0.0
  outer loop
    vertex 0.06470476127563016 0.24148145657226708 0.125
    vertex -3.0616169978683824e-17 0.25 0.375
    vertex 0.06470476127563016 0.24148145657226708 0.375
  endloop
endfacet
facet normal -0.13052619222005193 0.9914448613738105 0.0
  outer loop
    vertex -0.06470476127563042 0.24148145657226702 0.375
    vertex -3.0616169978683824e-17 0.25 0.125
    vertex -0.06470476127563042 0.24148145657226702 0.125
  endloop
endfacet
facet normal -0.13052619222005193 0.9914448613738105 0.0
  outer loop
    vertex -3.0616169978683824e-17 0.25 0.125
    vertex -0.06470476127563042 0.24148145657226702 0.375
    vertex -3.0616169978683824e-17 0.25 0.375
  endloop
endfacet
facet normal -0.38268343236509045 0.9238795325112866 0.0
  outer loop
    vertex -0.12500000000000017 0.2165063509461096 0.375
    vertex -0.06470476127563042 0.24148145657226702 0.125
    vertex -0.12500000000000017 0.2165063509461096 0.125
  endloop
endfacet
facet normal -0.38268343236509045 0.9238795325112866 0.0
  outer loop
    vertex -0.06470476127563042 0.24148145657226702 0.125
    vertex -0.12500000000000017 0.2165063509461096 0.375
    vertex -0.06470476127563042 0.24148145657226702 0.375
  endloop
endfacet
facet normal -0.608761429008721 0.793353340291235 0.0
  outer loop
    vertex -0.17677669529663698 0.17677669529663684 0.375
    vertex -0.12500000000000017 0.2165063509461096 0.125
    vertex -0.17677669529663698 0.17677669529663684 0.125
  endloop
endfacet
facet normal -0.608761429008721 0.793353340291235 0.0
  outer loop
    vertex -0.12500000000000017 0.2165063509461096 0.125
    vertex -0.17677669529663698 0.17677669529663684 0.375
    vertex -0.12500000000000017 0.2165063509461096 0.375
  endloop
endfacet
facet normal -0.7933533402912354 0.6087614290087204 0.0
  outer loop
    vertex -0.17677669529663698 0.17677669529663684 0.375
    vertex -0.21650635094610982 0.12499999999999985 0.125
    vertex -0.21650635094610982 0.12499999999999985 0.375
  endloop
endfacet
facet normal -0.7933533402912354 0.6087614290087204 0.0
  outer loop
    vertex -0.21650635094610982 0.12499999999999985 0.125
    vertex -0.17677669529663698 0.17677669529663684 0.375
    vertex -0.17677669529663698 0.17677669529663684 0.125
  endloop
endfacet
facet normal -0.9238795325112871 0.3826834323650893 0.0
  outer loop
    vertex -0.21650635094610982 0.12499999999999985 0.375
    vertex -0.24148145657226716 0.06470476127563009 0.125
    vertex -0.24148145657226716 0.06470476127563009 0.375
  endloop
endfacet
facet normal -0.9238795325112871 0.3826834323650893 0.0
  outer loop
    vertex -0.24148145657226716 0.06470476127563009 0.125
    vertex -0.21650635094610982 0.12499999999999985 0.375
    vertex -0.21650635094610982 0.12499999999999985 0.125
  endloop
endfacet
facet normal -0.9914448613738105 0.1305261922200512 0.0
  outer loop
    vertex -0.24148145657226716 0.06470476127563009 0.375
    vertex -0.25000000000000006 -3.0616169978683824e-17 0.125
    vertex -0.25000000000000006 -3.0616169978683824e-17 0.375
  endloop
endfacet
facet normal -0.9914448613738105 0.1305261922200512 0.0
  outer loop
    vertex -0.25000000000000006 -3.0616169978683824e-17 0.125
    vertex -0.24148145657226716 0.06470476127563009 0.375
    vertex -0.24148145657226716 0.06470476127563009 0.125
  endloop
endfacet
facet normal -0.9914448613738105 -0.13052619222005207 -0.0
  outer loop
    vertex -0.25000000000000006 -3.0616169978683824e-17 0.375
    vertex -0.24148145657226708 -0.06470476127563037 0.125
    vertex -0.24148145657226708 -0.06470476127563037 0.375
  endloop
endfacet
facet normal -0.9914448613738105 -0.13052619222005207 -0.0
  outer loop
    vertex -0.24148145657226708 -0.06470476127563037 0.125
    vertex -0.25000000000000006 -3.0616169978683824e-17 0.375
    vertex -0.25000000000000006 -3.0616169978683824e-17 0.125
  endloop
endfacet
facet normal -0.9238795325112868 -0.3826834323650901 -0.0
  outer loop
    vertex -0.24148145657226708 -0.06470476127563037 0.375
    vertex -0.21650635094610968 -0.1250000000000001 0.125
    vertex -0.21650635094610968 -0.1250000000000001 0.375
  endloop
endfacet
facet normal -0.9238795325112868 -0.3826834323650901 -0.0
  outer loop
    vertex -0.21650635094610968 -0.1250000000000001 0.125
    vertex -0.24148145657226708 -0.06470476127563037 0.375
    vertex -0.24148145657226708 -0.06470476127563037 0.125
  endloop
endfacet
facet normal -0.7933533402912347 -0.6087614290087213 -0.0
  outer loop
    vertex -0.21650635094610968 -0.1250000000000001 0.375
    vertex -0.17677669529663684 -0.17677669529663698 0.125
    vertex -0.17677669529663684 -0.17677669529663698 0.375
  endloop
endfacet
facet normal -0.7933533402912347 -0.6087614290087213 -0.0
  outer loop
    vertex -0.17677669529663684 -0.17677669529663698 0.125
    vertex -0.21650635094610968 -0.1250000000000001 0.375
    vertex -0.21650635094610968 -0.1250000000000001 0.125
  endloop
endfacet
facet normal -0.6087614290087204 -0.7933533402912355 -0.0
  outer loop
    vertex -0.12499999999999999 -0.2165063509461097 0.375
    vertex -0.17677669529663684 -0.17677669529663698 0.125
    vertex -0.12499999999999999 -0.2165063509461097 0.125
  endloop
endfacet
facet normal -0.6087614290087204 -0.7933533402912355 -0.0
  outer loop
    vertex -0.17677669529663684 -0.17677669529663698 0.125
    vertex -0.12499999999999999 -0.2165063509461097 0.375
    vertex -0.17677669529663684 -0.17677669529663698 0.375
  endloop
endfacet
facet normal -0.38268343236508956 -0.923879532511287 -0.0
  outer loop
    vertex -0.06470476127563014 -0.2414814565722671 0.375
    vertex -0.12499999999999999 -0.2165063509461097 0.125
    vertex -0.06470476127563014 -0.2414814565722671 0.125
  endloop
endfacet
facet normal -0.38268343236508956 -0.923879532511287 -0.0
  outer loop
    vertex -0.12499999999999999 -0.2165063509461097 0.125
    vertex -0.06470476127563014 -0.2414814565722671 0.375
    vertex -0.12499999999999999 -0.2165063509461097 0.375
  endloop
endfacet
facet normal -0.1305261922200512 -0.9914448613738105 -0.0
  outer loop
    vertex -3.061616997868383e-17 -0.25 0.375
    vertex -0.06470476127563014 -0.2414814565722671 0.125
    vertex -3.061616997868383e-17 -0.25 0.125
  endloop
endfacet
facet normal -0.1305261922200512 -0.9914448613738105 -0.0
  outer loop
    vertex -0.06470476127563014 -0.2414814565722671 0.125
    vertex -3.061616997868383e-17 -0.25 0.375
    vertex -0.06470476127563014 -0.2414814565722671 0.375
  endloop
endfacet
facet normal 0.13052619222005185 -0.9914448613738105 0.0
  outer loop
    vertex 0.0647047612756302 -0.24148145657226705 0.375
    vertex -3.061616997868383e-17 -0.25 0.125
    vertex 0.0647047612756302 -0.24148145657226705 0.125
  endloop
endfacet
facet normal 0.13052619222005185 -0.9914448613738105 0.0
  outer loop
    vertex -3.061616997868383e-17 -0.25 0.125
    vertex 0.0647047612756302 -0.24148145657226705 0.375
    vertex -3.061616997868383e-17 -0.25 0.375
  endloop
endfacet
facet normal 0.38268343236508995 -0.9238795325112867 0.0
  outer loop
    vertex 0.12500000000000003 -0.21650635094610962 0.375
    vertex 0.0647047612756302 -0.24148145657226705 0.125
    vertex 0.12500000000000003 -0.21650635094610962 0.125
  endloop
endfacet
facet normal 0.38268343236508995 -0.9238795325112867 0.0
  outer loop
    vertex 0.0647047612756302 -0.24148145657226705 0.125
    vertex 0.12500000000000003 -0.21650635094610962 0.375
    vertex 0.0647047612756302 -0.24148145657226705 0.375
  endloop
endfacet
facet normal 0.608761429008721 -0.793353340291235 0.0
  outer loop
    vertex 0.17677669529663684 -0.17677669529663687 0.375
    vertex 0.12500000000000003 -0.21650635094610962 0.125
    vertex 0.17677669529663684 -0.17677669529663687 0.125
  endloop
endfacet
facet normal 0.608761429008721 -0.793353340291235 0.0
  outer loop
    vertex 0.12500000000000003 -0.21650635094610962 0.125
    vertex 0.17677669529663684 -0.17677669529663687 0.375
    vertex 0.12500000000000003 -0.21650635094610962 0.375
  endloop
endfacet
facet normal 0.7933533402912353 -0.6087614290087205 0.0
  outer loop
    vertex 0.21650635094610962 -0.12499999999999996 0.125
    vertex 0.17677669529663684 -0.17677669529663687 0.375
    vertex 0.17677669529663684 -0.17677669529663687 0.125
  endloop
endfacet
facet normal 0.7933533402912353 -0.6087614290087205 0.0
  outer loop
    vertex 0.17677669529663684 -0.17677669529663687 0.375
    vertex 0.21650635094610962 -0.12499999999999996 0.125
    vertex 0.21650635094610962 -0.12499999999999996 0.375
  endloop
endfacet
facet normal 0.9238795325112867 -0.3826834323650898 0.0
  outer loop
    vertex 0.24148145657226702 -0.06470476127563017 0.125
    vertex 0.21650635094610962 -0.12499999999999996 0.375
    vertex 0.21650635094610962 -0.12499999999999996 0.125
  endloop
endfacet
facet normal 0.9238795325112867 -0.3826834323650898 0.0
  outer loop
    vertex 0.21650635094610962 -0.12499999999999996 0.375
    vertex 0.24148145657226702 -0.06470476127563017 0.125
    vertex 0.24148145657226702 -0.06470476127563017 0.375
  endloop
endfacet
facet normal 0.9914448613738105 -0.13052619222005155 0.0
  outer loop
    vertex 0.24999999999999994 -3.0814879110195774e-33 0.125
    vertex 0.24148145657226702 -0.06470476127563017 0.375
    vertex 0.24148145657226702 -0.06470476127563017 0.125
  endloop
endfacet
facet normal 0.9914448613738105 -0.13052619222005155 0.0
  outer loop
    vertex 0.24148145657226702 -0.06470476127563017 0.375
    vertex 0.24999999999999994 -3.0814879110195774e-33 0.125
    vertex 0.24999999999999994 -3.0814879110195774e-33 0.375
  endloop
endfacet
facet normal 0.9914448613738105 0.13052619222005185 0.0
  outer loop
    vertex 0.241481456572267 0.06470476127563023 0.125
    vertex 0.24999999999999994 -3.0814879110195774e-33 0.375
    vertex 0.24999999999999994 -3.0814879110195774e-33 0.125
  endloop
endfacet
facet normal 0.9914448613738105 0.13052619222005185 0.0
  outer loop
    vertex 0.24999999999999994 -3.0814879110195774e-33 0.375
    vertex 0.241481456572267 0.06470476127563023 0.125
    vertex 0.241481456572267 0.06470476127563023 0.375
  endloop
endfacet
facet normal 0.923879532511287 0.3826834323650898 0.0
  outer loop
    vertex 0.2165063509461096 0.12500000000000003 0.125
    vertex 0.241481456572267 0.06470476127563023 0.375
    vertex 0.241481456572267 0.06470476127563023 0.125
  endloop
endfacet
facet normal 0.923879532511287 0.3826834323650898 0.0
  outer loop
    vertex 0.241481456572267 0.06470476127563023 0.375
    vertex 0.2165063509461096 0.12500000000000003 0.125
    vertex 0.2165063509461096 0.12500000000000003 0.375
  endloop
endfacet
facet normal 0.7933533402912353 0.6087614290087205 0.0
  outer loop
    vertex 0.17677669529663684 0.1767766952966369 0.125
    vertex 0.2165063509461096 0.12500000000000003 0.375
    vertex 0.2165063509461096 0.12500000000000003 0.125
  endloop
endfacet
facet normal 0.7933533402912353 0.6087614290087205 0.0
  outer loop
    vertex 0.2165063509461096 0.12500000000000003 0.375
    vertex 0.17677669529663684 0.1767766952966369 0.125
    vertex 0.17677669529663684 0.1767766952966369 0.375
  endloop
endfacet
facet normal 0.6087614290087208 0.7933533402912353 0.0
  outer loop
    vertex 0.12499999999999996 0.21650635094610968 0.375
    vertex 0.17677669529663684 0.1767766952966369 0.125
    vertex 0.12499999999999996 0.21650635094610968 0.125
  endloop
endfacet
facet normal 0.6087614290087208 0.7933533402912353 0.0
  outer loop
    vertex 0.17677669529663684 0.1767766952966369 0.125
    vertex 0.12499999999999996 0.21650635094610968 0.375
    vertex 0.17677669529663684 0.1767766952966369 0.375
  endloop
endfacet
facet normal 0.3826834323650898 0.923879532511287 0.0
  outer loop
    vertex 0.06470476127563016 0.24148145657226708 0.375
    vertex 0.12499999999999996 0.21650635094610968 0.125
    vertex 0.06470476127563016 0.24148145657226708 0.125
  endloop
endfacet
facet normal 0.3826834323650898 0.923879532511287 0.0
  outer loop
    vertex 0.12499999999999996 0.21650635094610968 0.125
    vertex 0.06470476127563016 0.24148145657226708 0.375
    vertex 0.12499999999999996 0.21650635094610968 0.375
  endloop
endfacet
endsolid WheelToPanelAdapter
