solid wire_mount
facet normal 0.0 0.0 -1.0
  outer loop
    vertex 1.375 0.5 0.125
    vertex 1.0625 0.0 0.125
    vertex 1.0625 0.5 0.125
  endloop
endfacet
facet normal 0.0 0.0 -1.0
  outer loop
    vertex 1.0625 0.0 0.125
    vertex 1.375 0.5 0.125
    vertex 1.375 0.0 0.125
  endloop
endfacet
facet normal -1.0 -0.0 -0.0
  outer loop
    vertex 1.375 0.5 0.125
    vertex 1.375 0.0 0.0
    vertex 1.375 0.0 0.125
  endloop
endfacet
facet normal -1.0 -0.0 -0.0
  outer loop
    vertex 1.375 0.0 0.0
    vertex 1.375 0.5 0.125
    vertex 1.375 0.5 0.0
  endloop
endfacet
facet normal 0.0 0.0 -1.0
  outer loop
    vertex -0.0625 0.5 0.125
    vertex -0.375 0.0 0.125
    vertex -0.375 0.5 0.125
  endloop
endfacet
facet normal 0.0 0.0 -1.0
  outer loop
    vertex -0.375 0.0 0.125
    vertex -0.0625 0.5 0.125
    vertex -0.0625 0.0 0.125
  endloop
endfacet
facet normal 1.0 0.0 0.0
  outer loop
    vertex -0.375 0.5 0.0
    vertex -0.375 0.0 0.125
    vertex -0.375 0.0 0.0
  endloop
endfacet
facet normal 1.0 0.0 0.0
  outer loop
    vertex -0.375 0.0 0.125
    vertex -0.375 0.5 0.0
    vertex -0.375 0.5 0.125
  endloop
endfacet
facet normal 0.0 -1.0 0.0
  outer loop
    vertex 1.375 0.5 0.125
    vertex 1.0625 0.5 0.0
    vertex 1.375 0.5 0.0
  endloop
endfacet
facet normal 0.0 -1.0 0.0
  outer loop
    vertex 1.0625 0.5 0.0
    vertex 1.375 0.5 0.125
    vertex 1.0625 0.5 0.125
  endloop
endfacet
facet normal -0.0 1.0 -0.0
  outer loop
    vertex -0.375 0.0 0.125
    vertex -0.0625 0.0 0.0
    vertex -0.375 0.0 0.0
  endloop
endfacet
facet normal -0.0 1.0 -0.0
  outer loop
    vertex -0.0625 0.0 0.0
    vertex -0.375 0.0 0.125
    vertex -0.0625 0.0 0.014325491013253507
  endloop
endfacet
facet normal -0.0 1.0 -0.0
  outer loop
    vertex -0.0625 0.0 0.014325491013253507
    vertex -0.375 0.0 0.125
    vertex -0.0625 0.0 0.125
  endloop
endfacet
facet normal 0.0 0.0 -1.0
  outer loop
    vertex 0.6875 0.5 0.375
    vertex 0.3125 0.0 0.375
    vertex 0.3125 0.5 0.375
  endloop
endfacet
facet normal 0.0 0.0 -1.0
  outer loop
    vertex 0.3125 0.0 0.375
    vertex 0.6875 0.5 0.375
    vertex 0.6875 0.0 0.375
  endloop
endfacet
facet normal -0.554700196225229 0.0 -0.8320502943378437
  outer loop
    vertex 1.0625 0.5 0.125
    vertex 0.6875 0.0 0.375
    vertex 0.6875 0.5 0.375
  endloop
endfacet
facet normal -0.554700196225229 0.0 -0.8320502943378437
  outer loop
    vertex 0.6875 0.0 0.375
    vertex 1.0625 0.5 0.125
    vertex 1.0625 0.0 0.125
  endloop
endfacet
facet normal 0.554700196225229 0.0 -0.8320502943378437
  outer loop
    vertex 0.3125 0.5 0.375
    vertex -0.0625 0.0 0.125
    vertex -0.0625 0.5 0.125
  endloop
endfacet
facet normal 0.554700196225229 0.0 -0.8320502943378437
  outer loop
    vertex -0.0625 0.0 0.125
    vertex 0.3125 0.5 0.375
    vertex 0.3125 0.0 0.375
  endloop
endfacet
facet normal 0.0 -1.0 0.0
  outer loop
    vertex 0.6875 0.5 0.375
    vertex 0.3125 0.5 0.25
    vertex 0.6875 0.5 0.25
  endloop
endfacet
facet normal 0.0 -1.0 0.0
  outer loop
    vertex 0.3125 0.5 0.25
    vertex 0.6875 0.5 0.375
    vertex 0.3125 0.5 0.375
  endloop
endfacet
facet normal 0.0 -1.0 0.0
  outer loop
    vertex 0.3125 0.5 0.25
    vertex -0.0625 0.5 0.125
    vertex -0.0625 0.5 0.0
  endloop
endfacet
facet normal 0.0 -1.0 0.0
  outer loop
    vertex -0.0625 0.5 0.125
    vertex 0.3125 0.5 0.25
    vertex 0.3125 0.5 0.375
  endloop
endfacet
facet normal 0.0 -1.0 0.0
  outer loop
    vertex 1.0625 0.5 0.125
    vertex 0.6875 0.5 0.25
    vertex 1.0625 0.5 0.0
  endloop
endfacet
facet normal 0.0 -1.0 0.0
  outer loop
    vertex 0.6875 0.5 0.25
    vertex 1.0625 0.5 0.125
    vertex 0.6875 0.5 0.375
  endloop
endfacet
facet normal 0.0 -1.0 0.0
  outer loop
    vertex -0.0625 0.5 0.125
    vertex -0.375 0.5 0.0
    vertex -0.0625 0.5 0.0
  endloop
endfacet
facet normal 0.0 -1.0 0.0
  outer loop
    vertex -0.375 0.5 0.0
    vertex -0.0625 0.5 0.125
    vertex -0.375 0.5 0.125
  endloop
endfacet
facet normal -0.0 1.0 -0.0
  outer loop
    vertex 1.0625 0.0 0.125
    vertex 1.375 0.0 0.0
    vertex 1.0625 0.0 0.0
  endloop
endfacet
facet normal -0.0 1.0 -0.0
  outer loop
    vertex 1.375 0.0 0.0
    vertex 1.0625 0.0 0.125
    vertex 1.375 0.0 0.125
  endloop
endfacet
facet normal -0.0 1.0 -0.0
  outer loop
    vertex -0.0625 0.0 0.014325491013253507
    vertex 0.3125 0.0 0.25
    vertex -0.0625 0.0 0.0
  endloop
endfacet
facet normal -0.0 1.0 -0.0
  outer loop
    vertex 0.3125 0.0 0.25
    vertex -0.0625 0.0 0.014325491013253507
    vertex -0.0625 0.0 0.125
  endloop
endfacet
facet normal -0.0 1.0 -0.0
  outer loop
    vertex 0.3125 0.0 0.25
    vertex -0.0625 0.0 0.125
    vertex 0.3125 0.0 0.375
  endloop
endfacet
facet normal -0.0 1.0 -0.0
  outer loop
    vertex 0.3125 0.0 0.375
    vertex 0.6875 0.0 0.25
    vertex 0.3125 0.0 0.25
  endloop
endfacet
facet normal -0.0 1.0 -0.0
  outer loop
    vertex 0.6875 0.0 0.25
    vertex 0.3125 0.0 0.375
    vertex 0.6875 0.0 0.375
  endloop
endfacet
facet normal -0.0 1.0 -0.0
  outer loop
    vertex 0.6875 0.0 0.25
    vertex 1.0625 0.0 0.125
    vertex 1.0625 0.0 0.0
  endloop
endfacet
facet normal -0.0 1.0 -0.0
  outer loop
    vertex 1.0625 0.0 0.125
    vertex 0.6875 0.0 0.25
    vertex 0.6875 0.0 0.375
  endloop
endfacet
facet normal -0.0 -0.0 1.0
  outer loop
    vertex -0.0625 0.0 0.0
    vertex -0.375 0.5 0.0
    vertex -0.375 0.0 0.0
  endloop
endfacet
facet normal -0.0 -0.0 1.0
  outer loop
    vertex -0.375 0.5 0.0
    vertex -0.0625 0.0 0.0
    vertex -0.0625 0.5 0.0
  endloop
endfacet
facet normal 0.554700196225229 0.0 -0.8320502943378437
  outer loop
    vertex 0.3125 0.5 0.25
    vertex -0.0625 0.0 0.0
    vertex -0.0625 0.5 0.0
  endloop
endfacet
facet normal 0.554700196225229 0.0 -0.8320502943378437
  outer loop
    vertex -0.0625 0.0 0.0
    vertex 0.3125 0.5 0.25
    vertex 0.3125 0.0 0.25
  endloop
endfacet
facet normal -0.0 -0.0 1.0
  outer loop
    vertex 0.6875 0.0 0.25
    vertex 0.3125 0.5 0.25
    vertex 0.3125 0.0 0.25
  endloop
endfacet
facet normal -0.0 -0.0 1.0
  outer loop
    vertex 0.3125 0.5 0.25
    vertex 0.6875 0.0 0.25
    vertex 0.6875 0.5 0.25
  endloop
endfacet
facet normal -0.0 -0.0 1.0
  outer loop
    vertex 1.375 0.0 0.0
    vertex 1.0625 0.5 0.0
    vertex 1.0625 0.0 0.0
  endloop
endfacet
facet normal -0.0 -0.0 1.0
  outer loop
    vertex 1.0625 0.5 0.0
    vertex 1.375 0.0 0.0
    vertex 1.375 0.5 0.0
  endloop
endfacet
facet normal 0.554700196225229 -0.0 0.8320502943378437
  outer loop
    vertex 1.0625 0.0 0.0
    vertex 0.6875 0.5 0.25
    vertex 0.6875 0.0 0.25
  endloop
endfacet
facet normal 0.554700196225229 -0.0 0.8320502943378437
  outer loop
    vertex 0.6875 0.5 0.25
    vertex 1.0625 0.0 0.0
    vertex 1.0625 0.5 0.0
  endloop
endfacet
endsolid wire_mount
