solid PassiveAxel
facet normal 2.317557204449988e-15 4.803289400731214e-31 -1.0
  outer loop
    vertex -0.14571583391229126 0.34705714191344517 0.2656249999999991
    vertex -0.14571583391228948 0.1529428580865546 0.2656249999999991
    vertex -0.15849364905388974 0.25 0.2656249999999991
  endloop
endfacet
facet normal 2.317557204449988e-15 4.803289400731214e-31 -1.0
  outer loop
    vertex -0.14571583391228948 0.1529428580865546 0.2656249999999991
    vertex -0.14571583391229126 0.34705714191344517 0.2656249999999991
    vertex -0.10825317547305424 0.4375 0.2656249999999991
  endloop
endfacet
facet normal 2.317557204449988e-15 4.803289400731214e-31 -1.0
  outer loop
    vertex -0.14571583391228948 0.1529428580865546 0.2656249999999991
    vertex -0.10825317547305424 0.4375 0.2656249999999991
    vertex -0.10825317547305424 0.0625 0.2656249999999991
  endloop
endfacet
facet normal 2.317557204449988e-15 4.803289400731214e-31 -1.0
  outer loop
    vertex -0.10825317547305424 0.0625 0.2656249999999991
    vertex -0.10825317547305424 0.4375 0.2656249999999991
    vertex -0.04865869199884543 0.5151650429449552 0.26562499999999956
  endloop
endfacet
facet normal 2.317557204449988e-15 4.803289400731214e-31 -1.0
  outer loop
    vertex -0.10825317547305424 0.0625 0.2656249999999991
    vertex -0.04865869199884543 0.5151650429449552 0.26562499999999956
    vertex -0.07216878364870266 0.2500000000000001 0.2656249999999993
  endloop
endfacet
facet normal 2.317557204449988e-15 4.803289400731214e-31 -1.0
  outer loop
    vertex -0.07216878364870266 0.2500000000000001 0.2656249999999993
    vertex -0.04865869199884543 0.5151650429449552 0.26562499999999956
    vertex -0.05412658773652685 0.2812500000000001 0.26562499999999944
  endloop
endfacet
facet normal 2.317557204449988e-15 4.803289400731214e-31 -1.0
  outer loop
    vertex -0.05412658773652685 0.2812500000000001 0.26562499999999944
    vertex -0.04865869199884543 0.5151650429449552 0.26562499999999956
    vertex 0.05412658773652807 0.4687500000000001 0.26562499999999967
  endloop
endfacet
facet normal 2.317557204449988e-15 4.803289400731214e-31 -1.0
  outer loop
    vertex 0.05412658773652807 0.4687500000000001 0.26562499999999967
    vertex -0.04865869199884543 0.5151650429449552 0.26562499999999956
    vertex 0.02900635094611026 0.5747595264191645 0.26562499999999956
  endloop
endfacet
facet normal 2.317557204449988e-15 4.803289400731214e-31 -1.0
  outer loop
    vertex 0.05412658773652807 0.4687500000000001 0.26562499999999967
    vertex 0.02900635094611026 0.5747595264191645 0.26562499999999956
    vertex 0.11944920903266443 0.6122221848584006 0.265625
  endloop
endfacet
facet normal 2.317557204449988e-15 4.803289400731214e-31 -1.0
  outer loop
    vertex 0.05412658773652807 0.4687500000000001 0.26562499999999967
    vertex 0.11944920903266443 0.6122221848584006 0.265625
    vertex 0.07216878364870385 0.5 0.2656249999999996
  endloop
endfacet
facet normal 2.317557204449988e-15 4.803289400731214e-31 -1.0
  outer loop
    vertex 0.07216878364870385 0.5 0.2656249999999996
    vertex 0.11944920903266443 0.6122221848584006 0.265625
    vertex 0.10825317547305535 0.5 0.26562499999999983
  endloop
endfacet
facet normal 2.317557204449988e-15 4.803289400731214e-31 -1.0
  outer loop
    vertex 0.10825317547305535 0.5 0.26562499999999983
    vertex 0.11944920903266443 0.6122221848584006 0.265625
    vertex 0.2165063509461103 0.5 0.2656250000000001
  endloop
endfacet
facet normal 2.317557204449988e-15 4.803289400731214e-31 -1.0
  outer loop
    vertex 0.2165063509461103 0.5 0.2656250000000001
    vertex 0.11944920903266443 0.6122221848584006 0.265625
    vertex 0.21650635094611026 0.625 0.265625
  endloop
endfacet
facet normal 2.317557204449988e-15 4.803289400731214e-31 -1.0
  outer loop
    vertex 0.2165063509461103 0.5 0.2656250000000001
    vertex 0.21650635094611026 0.625 0.265625
    vertex 0.3135634928595561 0.6122221848584006 0.26562500000000044
  endloop
endfacet
facet normal 2.317557204449988e-15 4.803289400731214e-31 -1.0
  outer loop
    vertex 0.2165063509461103 0.5 0.2656250000000001
    vertex 0.3135634928595561 0.6122221848584006 0.26562500000000044
    vertex 0.32475952641916517 0.49999999999999994 0.26562500000000033
  endloop
endfacet
facet normal 2.317557204449988e-15 4.803289400731214e-31 -1.0
  outer loop
    vertex 0.32475952641916517 0.49999999999999994 0.26562500000000033
    vertex 0.3135634928595561 0.6122221848584006 0.26562500000000044
    vertex 0.40400635094611026 0.5747595264191645 0.265625
  endloop
endfacet
facet normal 2.317557204449988e-15 4.803289400731214e-31 -1.0
  outer loop
    vertex 0.32475952641916517 0.49999999999999994 0.26562500000000033
    vertex 0.40400635094611026 0.5747595264191645 0.265625
    vertex 0.36084391824351675 0.49999999999999994 0.26562500000000033
  endloop
endfacet
facet normal 2.317557204449988e-15 4.803289400731214e-31 -1.0
  outer loop
    vertex 0.36084391824351675 0.49999999999999994 0.26562500000000033
    vertex 0.40400635094611026 0.5747595264191645 0.265625
    vertex 0.3788861141556925 0.46875 0.2656250000000005
  endloop
endfacet
facet normal 2.317557204449988e-15 4.803289400731214e-31 -1.0
  outer loop
    vertex 0.3788861141556925 0.46875 0.2656250000000005
    vertex 0.40400635094611026 0.5747595264191645 0.265625
    vertex 0.4871392896287473 0.28124999999999994 0.2656250000000008
  endloop
endfacet
facet normal 2.317557204449988e-15 4.803289400731214e-31 -1.0
  outer loop
    vertex 0.4871392896287473 0.28124999999999994 0.2656250000000008
    vertex 0.40400635094611026 0.5747595264191645 0.265625
    vertex 0.48167139389106595 0.5151650429449552 0.2656250000000009
  endloop
endfacet
facet normal 2.317557204449988e-15 4.803289400731214e-31 -1.0
  outer loop
    vertex 0.4871392896287473 0.28124999999999994 0.2656250000000008
    vertex 0.48167139389106595 0.5151650429449552 0.2656250000000009
    vertex 0.5412658773652748 0.4375000000000002 0.2656250000000009
  endloop
endfacet
facet normal 2.317557204449988e-15 4.803289400731214e-31 -1.0
  outer loop
    vertex 0.4871392896287473 0.28124999999999994 0.2656250000000008
    vertex 0.5412658773652748 0.4375000000000002 0.2656250000000009
    vertex 0.5051814855409231 0.24999999999999994 0.2656250000000007
  endloop
endfacet
facet normal 2.317557204449988e-15 4.803289400731214e-31 -1.0
  outer loop
    vertex -0.07216878364870266 0.2500000000000001 0.2656249999999993
    vertex -0.04865869199884543 -0.015165042944955243 0.26562499999999956
    vertex -0.10825317547305424 0.0625 0.2656249999999991
  endloop
endfacet
facet normal 2.317557204449988e-15 4.803289400731214e-31 -1.0
  outer loop
    vertex -0.04865869199884543 -0.015165042944955243 0.26562499999999956
    vertex -0.07216878364870266 0.2500000000000001 0.2656249999999993
    vertex -0.0541265877365269 0.21875000000000014 0.26562499999999944
  endloop
endfacet
facet normal 2.317557204449988e-15 4.803289400731214e-31 -1.0
  outer loop
    vertex -0.04865869199884543 -0.015165042944955243 0.26562499999999956
    vertex -0.0541265877365269 0.21875000000000014 0.26562499999999944
    vertex 0.054126587736527745 0.03125000000000024 0.2656249999999997
  endloop
endfacet
facet normal 2.317557204449988e-15 4.803289400731214e-31 -1.0
  outer loop
    vertex -0.04865869199884543 -0.015165042944955243 0.26562499999999956
    vertex 0.054126587736527745 0.03125000000000024 0.2656249999999997
    vertex 0.02900635094611026 -0.0747595264191645 0.26562499999999956
  endloop
endfacet
facet normal 2.317557204449988e-15 4.803289400731214e-31 -1.0
  outer loop
    vertex 0.02900635094611026 -0.0747595264191645 0.26562499999999956
    vertex 0.054126587736527745 0.03125000000000024 0.2656249999999997
    vertex 0.11944920903266443 -0.11222218485840063 0.265625
  endloop
endfacet
facet normal 2.317557204449988e-15 4.803289400731214e-31 -1.0
  outer loop
    vertex 0.11944920903266443 -0.11222218485840063 0.265625
    vertex 0.054126587736527745 0.03125000000000024 0.2656249999999997
    vertex 0.0721687836487036 1.1102230246251565e-16 0.26562499999999967
  endloop
endfacet
facet normal 2.317557204449988e-15 4.803289400731214e-31 -1.0
  outer loop
    vertex 0.11944920903266443 -0.11222218485840063 0.265625
    vertex 0.0721687836487036 1.1102230246251565e-16 0.26562499999999967
    vertex 0.10825317547305535 1.040834085586084e-16 0.2656249999999999
  endloop
endfacet
facet normal 2.317557204449988e-15 4.803289400731214e-31 -1.0
  outer loop
    vertex 0.11944920903266443 -0.11222218485840063 0.265625
    vertex 0.10825317547305535 1.040834085586084e-16 0.2656249999999999
    vertex 0.21650635094611026 5.55111512312578e-17 0.2656250000000001
  endloop
endfacet
facet normal 2.317557204449988e-15 4.803289400731214e-31 -1.0
  outer loop
    vertex 0.11944920903266443 -0.11222218485840063 0.265625
    vertex 0.21650635094611026 5.55111512312578e-17 0.2656250000000001
    vertex 0.21650635094611026 -0.125 0.265625
  endloop
endfacet
facet normal 2.317557204449988e-15 4.803289400731214e-31 -1.0
  outer loop
    vertex 0.21650635094611026 -0.125 0.265625
    vertex 0.21650635094611026 5.55111512312578e-17 0.2656250000000001
    vertex 0.3247595264191651 6.938893903907216e-18 0.2656250000000004
  endloop
endfacet
facet normal 2.317557204449988e-15 4.803289400731214e-31 -1.0
  outer loop
    vertex 0.21650635094611026 -0.125 0.265625
    vertex 0.3247595264191651 6.938893903907216e-18 0.2656250000000004
    vertex 0.3135634928595561 -0.11222218485840063 0.26562500000000044
  endloop
endfacet
facet normal 2.317557204449988e-15 4.803289400731214e-31 -1.0
  outer loop
    vertex 0.3135634928595561 -0.11222218485840063 0.26562500000000044
    vertex 0.3247595264191651 6.938893903907216e-18 0.2656250000000004
    vertex 0.40400635094611026 -0.0747595264191645 0.265625
  endloop
endfacet
facet normal 2.317557204449988e-15 4.803289400731214e-31 -1.0
  outer loop
    vertex 0.40400635094611026 -0.0747595264191645 0.265625
    vertex 0.3247595264191651 6.938893903907216e-18 0.2656250000000004
    vertex 0.3608439182435167 0.0 0.2656250000000004
  endloop
endfacet
facet normal 2.317557204449988e-15 4.803289400731214e-31 -1.0
  outer loop
    vertex 0.40400635094611026 -0.0747595264191645 0.265625
    vertex 0.3608439182435167 0.0 0.2656250000000004
    vertex 0.3788861141556925 0.031249999999999997 0.26562500000000056
  endloop
endfacet
facet normal 2.317557204449988e-15 4.803289400731214e-31 -1.0
  outer loop
    vertex 0.40400635094611026 -0.0747595264191645 0.265625
    vertex 0.3788861141556925 0.031249999999999997 0.26562500000000056
    vertex 0.4871392896287473 0.21874999999999992 0.2656250000000008
  endloop
endfacet
facet normal 2.317557204449988e-15 4.803289400731214e-31 -1.0
  outer loop
    vertex 0.40400635094611026 -0.0747595264191645 0.265625
    vertex 0.4871392896287473 0.21874999999999992 0.2656250000000008
    vertex 0.48167139389106595 -0.015165042944955243 0.2656250000000009
  endloop
endfacet
facet normal 2.317557204449988e-15 4.803289400731214e-31 -1.0
  outer loop
    vertex 0.48167139389106595 -0.015165042944955243 0.2656250000000009
    vertex 0.4871392896287473 0.21874999999999992 0.2656250000000008
    vertex 0.5412658773652748 0.0625 0.2656250000000009
  endloop
endfacet
facet normal 2.317557204449988e-15 4.803289400731214e-31 -1.0
  outer loop
    vertex 0.5412658773652748 0.0625 0.2656250000000009
    vertex 0.4871392896287473 0.21874999999999992 0.2656250000000008
    vertex 0.5051814855409231 0.24999999999999994 0.2656250000000007
  endloop
endfacet
facet normal 2.317557204449988e-15 4.803289400731214e-31 -1.0
  outer loop
    vertex 0.5412658773652748 0.0625 0.2656250000000009
    vertex 0.5051814855409231 0.24999999999999994 0.2656250000000007
    vertex 0.5412658773652748 0.4375000000000002 0.2656250000000009
  endloop
endfacet
facet normal 2.317557204449988e-15 4.803289400731214e-31 -1.0
  outer loop
    vertex 0.5412658773652748 0.0625 0.2656250000000009
    vertex 0.5412658773652748 0.4375000000000002 0.2656250000000009
    vertex 0.57872853580451 0.3470571419134456 0.26562500000000044
  endloop
endfacet
facet normal 2.317557204449988e-15 4.803289400731214e-31 -1.0
  outer loop
    vertex 0.5412658773652748 0.0625 0.2656250000000009
    vertex 0.57872853580451 0.3470571419134456 0.26562500000000044
    vertex 0.5787285358045118 0.1529428580865546 0.26562500000000044
  endloop
endfacet
facet normal 2.317557204449988e-15 4.803289400731214e-31 -1.0
  outer loop
    vertex 0.5787285358045118 0.1529428580865546 0.26562500000000044
    vertex 0.57872853580451 0.3470571419134456 0.26562500000000044
    vertex 0.5915063509461103 0.25 0.26562500000000133
  endloop
endfacet
facet normal 0.9914448613738116 -0.1305261922200423 2.7518122818587555e-15
  outer loop
    vertex 0.5915063509461103 0.25 0.26562500000000133
    vertex 0.57872853580451 0.1529428580865546 0.39062500000000044
    vertex 0.5787285358045118 0.1529428580865546 0.26562500000000044
  endloop
endfacet
facet normal 0.9914448613738116 -0.1305261922200423 2.7518122818587555e-15
  outer loop
    vertex 0.57872853580451 0.1529428580865546 0.39062500000000044
    vertex 0.5915063509461103 0.25 0.26562500000000133
    vertex 0.5915063509461085 0.25 0.39062500000000133
  endloop
endfacet
facet normal 0.9914448613738094 0.13052619222005984 2.751812281858749e-15
  outer loop
    vertex 0.57872853580451 0.3470571419134456 0.26562500000000044
    vertex 0.5915063509461085 0.25 0.39062500000000133
    vertex 0.5915063509461103 0.25 0.26562500000000133
  endloop
endfacet
facet normal 0.9914448613738094 0.13052619222005984 2.751812281858749e-15
  outer loop
    vertex 0.5915063509461085 0.25 0.39062500000000133
    vertex 0.57872853580451 0.3470571419134456 0.26562500000000044
    vertex 0.5787285358045082 0.3470571419134456 0.39062500000000044
  endloop
endfacet
facet normal 0.9238795325112897 0.3826834323650825 2.5642808224348994e-15
  outer loop
    vertex 0.5412658773652748 0.4375000000000002 0.2656250000000009
    vertex 0.5787285358045082 0.3470571419134456 0.39062500000000044
    vertex 0.57872853580451 0.3470571419134456 0.26562500000000044
  endloop
endfacet
facet normal 0.9238795325112897 0.3826834323650825 2.5642808224348994e-15
  outer loop
    vertex 0.5787285358045082 0.3470571419134456 0.39062500000000044
    vertex 0.5412658773652748 0.4375000000000002 0.2656250000000009
    vertex 0.541265877365273 0.4375000000000002 0.3906250000000009
  endloop
endfacet
facet normal 0.7933533402912358 0.6087614290087199 2.2019978626365174e-15
  outer loop
    vertex 0.48167139389106595 0.5151650429449552 0.2656250000000009
    vertex 0.541265877365273 0.4375000000000002 0.3906250000000009
    vertex 0.5412658773652748 0.4375000000000002 0.2656250000000009
  endloop
endfacet
facet normal 0.7933533402912358 0.6087614290087199 2.2019978626365174e-15
  outer loop
    vertex 0.541265877365273 0.4375000000000002 0.3906250000000009
    vertex 0.48167139389106595 0.5151650429449552 0.2656250000000009
    vertex 0.48167139389106417 0.5151650429449552 0.3906250000000009
  endloop
endfacet
facet normal 0.6087614290087194 0.7933533402912362 1.6896523874729824e-15
  outer loop
    vertex 0.4040063509461085 0.5747595264191645 0.390625
    vertex 0.48167139389106595 0.5151650429449552 0.2656250000000009
    vertex 0.40400635094611026 0.5747595264191645 0.265625
  endloop
endfacet
facet normal 0.6087614290087194 0.7933533402912362 1.6896523874729824e-15
  outer loop
    vertex 0.48167139389106595 0.5151650429449552 0.2656250000000009
    vertex 0.4040063509461085 0.5747595264191645 0.390625
    vertex 0.48167139389106417 0.5151650429449552 0.3906250000000009
  endloop
endfacet
facet normal 0.38268343236509184 0.9238795325112859 1.0621598943857717e-15
  outer loop
    vertex 0.3135634928595561 0.6122221848584006 0.26562500000000044
    vertex 0.4040063509461085 0.5747595264191645 0.390625
    vertex 0.40400635094611026 0.5747595264191645 0.265625
  endloop
endfacet
facet normal 0.38268343236509184 0.9238795325112859 1.0621598943857717e-15
  outer loop
    vertex 0.4040063509461085 0.5747595264191645 0.390625
    vertex 0.3135634928595561 0.6122221848584006 0.26562500000000044
    vertex 0.3135634928595543 0.6122221848584006 0.39062500000000044
  endloop
endfacet
facet normal 0.13052619222005063 0.9914448613738105 3.62282959798373e-16
  outer loop
    vertex 0.21650635094610848 0.625 0.390625
    vertex 0.3135634928595561 0.6122221848584006 0.26562500000000044
    vertex 0.21650635094611026 0.625 0.265625
  endloop
endfacet
facet normal 0.13052619222005063 0.9914448613738105 3.62282959798373e-16
  outer loop
    vertex 0.3135634928595561 0.6122221848584006 0.26562500000000044
    vertex 0.21650635094610848 0.625 0.390625
    vertex 0.3135634928595543 0.6122221848584006 0.39062500000000044
  endloop
endfacet
facet normal -0.13052619222005063 0.9914448613738105 -3.62282959798373e-16
  outer loop
    vertex 0.11944920903266265 0.6122221848584006 0.390625
    vertex 0.21650635094611026 0.625 0.265625
    vertex 0.11944920903266443 0.6122221848584006 0.265625
  endloop
endfacet
facet normal -0.13052619222005063 0.9914448613738105 -3.62282959798373e-16
  outer loop
    vertex 0.21650635094611026 0.625 0.265625
    vertex 0.11944920903266265 0.6122221848584006 0.390625
    vertex 0.21650635094610848 0.625 0.390625
  endloop
endfacet
facet normal -0.38268343236509184 0.9238795325112859 -1.0621598943857717e-15
  outer loop
    vertex 0.029006350946108483 0.5747595264191645 0.39062499999999956
    vertex 0.11944920903266443 0.6122221848584006 0.265625
    vertex 0.02900635094611026 0.5747595264191645 0.26562499999999956
  endloop
endfacet
facet normal -0.38268343236509184 0.9238795325112859 -1.0621598943857717e-15
  outer loop
    vertex 0.11944920903266443 0.6122221848584006 0.265625
    vertex 0.029006350946108483 0.5747595264191645 0.39062499999999956
    vertex 0.11944920903266265 0.6122221848584006 0.390625
  endloop
endfacet
facet normal -0.6087614290087194 0.7933533402912362 -1.6896523874729824e-15
  outer loop
    vertex -0.0486586919988472 0.5151650429449552 0.39062499999999956
    vertex 0.02900635094611026 0.5747595264191645 0.26562499999999956
    vertex -0.04865869199884543 0.5151650429449552 0.26562499999999956
  endloop
endfacet
facet normal -0.6087614290087194 0.7933533402912362 -1.6896523874729824e-15
  outer loop
    vertex 0.02900635094611026 0.5747595264191645 0.26562499999999956
    vertex -0.0486586919988472 0.5151650429449552 0.39062499999999956
    vertex 0.029006350946108483 0.5747595264191645 0.39062499999999956
  endloop
endfacet
facet normal -0.7933533402912367 0.6087614290087188 -2.2019978626365194e-15
  outer loop
    vertex -0.0486586919988472 0.5151650429449552 0.39062499999999956
    vertex -0.10825317547305424 0.4375 0.2656249999999991
    vertex -0.10825317547305602 0.4375 0.3906249999999991
  endloop
endfacet
facet normal -0.7933533402912367 0.6087614290087188 -2.2019978626365194e-15
  outer loop
    vertex -0.10825317547305424 0.4375 0.2656249999999991
    vertex -0.0486586919988472 0.5151650429449552 0.39062499999999956
    vertex -0.04865869199884543 0.5151650429449552 0.26562499999999956
  endloop
endfacet
facet normal -0.9238795325112836 0.38268343236509716 -2.5642808224348825e-15
  outer loop
    vertex -0.10825317547305602 0.4375 0.3906249999999991
    vertex -0.14571583391229126 0.34705714191344517 0.2656249999999991
    vertex -0.14571583391229304 0.34705714191344517 0.3906249999999991
  endloop
endfacet
facet normal -0.9238795325112836 0.38268343236509716 -2.5642808224348825e-15
  outer loop
    vertex -0.14571583391229126 0.34705714191344517 0.2656249999999991
    vertex -0.10825317547305602 0.4375 0.3906249999999991
    vertex -0.10825317547305424 0.4375 0.2656249999999991
  endloop
endfacet
facet normal -0.9914448613738116 0.13052619222004258 -2.7518122818587555e-15
  outer loop
    vertex -0.14571583391229304 0.34705714191344517 0.3906249999999991
    vertex -0.15849364905388974 0.25 0.2656249999999991
    vertex -0.15849364905389152 0.25 0.3906249999999991
  endloop
endfacet
facet normal -0.9914448613738116 0.13052619222004258 -2.7518122818587555e-15
  outer loop
    vertex -0.15849364905388974 0.25 0.2656249999999991
    vertex -0.14571583391229304 0.34705714191344517 0.3906249999999991
    vertex -0.14571583391229126 0.34705714191344517 0.2656249999999991
  endloop
endfacet
facet normal -0.9914448613738094 -0.13052619222006015 -2.751812281858749e-15
  outer loop
    vertex -0.15849364905389152 0.25 0.3906249999999991
    vertex -0.14571583391228948 0.1529428580865546 0.2656249999999991
    vertex -0.14571583391229126 0.1529428580865546 0.3906249999999991
  endloop
endfacet
facet normal -0.9914448613738094 -0.13052619222006015 -2.751812281858749e-15
  outer loop
    vertex -0.14571583391228948 0.1529428580865546 0.2656249999999991
    vertex -0.15849364905389152 0.25 0.3906249999999991
    vertex -0.15849364905388974 0.25 0.2656249999999991
  endloop
endfacet
facet normal -0.9238795325112897 -0.3826834323650825 -2.5642808224348994e-15
  outer loop
    vertex -0.14571583391229126 0.1529428580865546 0.3906249999999991
    vertex -0.10825317547305424 0.0625 0.2656249999999991
    vertex -0.10825317547305602 0.0625 0.3906249999999991
  endloop
endfacet
facet normal -0.9238795325112897 -0.3826834323650825 -2.5642808224348994e-15
  outer loop
    vertex -0.10825317547305424 0.0625 0.2656249999999991
    vertex -0.14571583391229126 0.1529428580865546 0.3906249999999991
    vertex -0.14571583391228948 0.1529428580865546 0.2656249999999991
  endloop
endfacet
facet normal -0.7933533402912367 -0.6087614290087188 -2.2019978626365194e-15
  outer loop
    vertex -0.10825317547305602 0.0625 0.3906249999999991
    vertex -0.04865869199884543 -0.015165042944955243 0.26562499999999956
    vertex -0.0486586919988472 -0.015165042944955243 0.39062499999999956
  endloop
endfacet
facet normal -0.7933533402912367 -0.6087614290087188 -2.2019978626365194e-15
  outer loop
    vertex -0.04865869199884543 -0.015165042944955243 0.26562499999999956
    vertex -0.10825317547305602 0.0625 0.3906249999999991
    vertex -0.10825317547305424 0.0625 0.2656249999999991
  endloop
endfacet
facet normal -0.6087614290087194 -0.7933533402912362 -1.6896523874729824e-15
  outer loop
    vertex 0.029006350946108483 -0.0747595264191645 0.39062499999999956
    vertex -0.04865869199884543 -0.015165042944955243 0.26562499999999956
    vertex 0.02900635094611026 -0.0747595264191645 0.26562499999999956
  endloop
endfacet
facet normal -0.6087614290087194 -0.7933533402912362 -1.6896523874729824e-15
  outer loop
    vertex -0.04865869199884543 -0.015165042944955243 0.26562499999999956
    vertex 0.029006350946108483 -0.0747595264191645 0.39062499999999956
    vertex -0.0486586919988472 -0.015165042944955243 0.39062499999999956
  endloop
endfacet
facet normal -0.38268343236509184 -0.9238795325112859 -1.0621598943857717e-15
  outer loop
    vertex 0.11944920903266443 -0.11222218485840063 0.265625
    vertex 0.029006350946108483 -0.0747595264191645 0.39062499999999956
    vertex 0.02900635094611026 -0.0747595264191645 0.26562499999999956
  endloop
endfacet
facet normal -0.38268343236509184 -0.9238795325112859 -1.0621598943857717e-15
  outer loop
    vertex 0.029006350946108483 -0.0747595264191645 0.39062499999999956
    vertex 0.11944920903266443 -0.11222218485840063 0.265625
    vertex 0.11944920903266265 -0.11222218485840063 0.390625
  endloop
endfacet
facet normal -0.13052619222005063 -0.9914448613738105 -3.62282959798373e-16
  outer loop
    vertex 0.21650635094610848 -0.125 0.390625
    vertex 0.11944920903266443 -0.11222218485840063 0.265625
    vertex 0.21650635094611026 -0.125 0.265625
  endloop
endfacet
facet normal -0.13052619222005063 -0.9914448613738105 -3.62282959798373e-16
  outer loop
    vertex 0.11944920903266443 -0.11222218485840063 0.265625
    vertex 0.21650635094610848 -0.125 0.390625
    vertex 0.11944920903266265 -0.11222218485840063 0.390625
  endloop
endfacet
facet normal 0.13052619222005063 -0.9914448613738105 3.62282959798373e-16
  outer loop
    vertex 0.3135634928595561 -0.11222218485840063 0.26562500000000044
    vertex 0.21650635094610848 -0.125 0.390625
    vertex 0.21650635094611026 -0.125 0.265625
  endloop
endfacet
facet normal 0.13052619222005063 -0.9914448613738105 3.62282959798373e-16
  outer loop
    vertex 0.21650635094610848 -0.125 0.390625
    vertex 0.3135634928595561 -0.11222218485840063 0.26562500000000044
    vertex 0.3135634928595543 -0.11222218485840063 0.39062500000000044
  endloop
endfacet
facet normal 0.38268343236509184 -0.9238795325112859 1.0621598943857717e-15
  outer loop
    vertex 0.4040063509461085 -0.0747595264191645 0.390625
    vertex 0.3135634928595561 -0.11222218485840063 0.26562500000000044
    vertex 0.40400635094611026 -0.0747595264191645 0.265625
  endloop
endfacet
facet normal 0.38268343236509184 -0.9238795325112859 1.0621598943857717e-15
  outer loop
    vertex 0.3135634928595561 -0.11222218485840063 0.26562500000000044
    vertex 0.4040063509461085 -0.0747595264191645 0.390625
    vertex 0.3135634928595543 -0.11222218485840063 0.39062500000000044
  endloop
endfacet
facet normal 0.6087614290087194 -0.7933533402912362 1.6896523874729824e-15
  outer loop
    vertex 0.48167139389106595 -0.015165042944955243 0.2656250000000009
    vertex 0.4040063509461085 -0.0747595264191645 0.390625
    vertex 0.40400635094611026 -0.0747595264191645 0.265625
  endloop
endfacet
facet normal 0.6087614290087194 -0.7933533402912362 1.6896523874729824e-15
  outer loop
    vertex 0.4040063509461085 -0.0747595264191645 0.390625
    vertex 0.48167139389106595 -0.015165042944955243 0.2656250000000009
    vertex 0.48167139389106417 -0.015165042944955243 0.3906250000000009
  endloop
endfacet
facet normal 0.7933533402912367 -0.6087614290087188 2.2019978626365194e-15
  outer loop
    vertex 0.5412658773652748 0.0625 0.2656250000000009
    vertex 0.48167139389106417 -0.015165042944955243 0.3906250000000009
    vertex 0.48167139389106595 -0.015165042944955243 0.2656250000000009
  endloop
endfacet
facet normal 0.7933533402912367 -0.6087614290087188 2.2019978626365194e-15
  outer loop
    vertex 0.48167139389106417 -0.015165042944955243 0.3906250000000009
    vertex 0.5412658773652748 0.0625 0.2656250000000009
    vertex 0.541265877365273 0.0625 0.3906250000000009
  endloop
endfacet
facet normal 0.9238795325112833 -0.382683432365098 2.5642808224348813e-15
  outer loop
    vertex 0.5787285358045118 0.1529428580865546 0.26562500000000044
    vertex 0.541265877365273 0.0625 0.3906250000000009
    vertex 0.5412658773652748 0.0625 0.2656250000000009
  endloop
endfacet
facet normal 0.9238795325112833 -0.382683432365098 2.5642808224348813e-15
  outer loop
    vertex 0.541265877365273 0.0625 0.3906250000000009
    vertex 0.5787285358045118 0.1529428580865546 0.26562500000000044
    vertex 0.57872853580451 0.1529428580865546 0.39062500000000044
  endloop
endfacet
facet normal -2.7755575615628914e-15 0.0 1.0
  outer loop
    vertex -0.14571583391229126 0.1529428580865546 0.3906249999999991
    vertex -0.14571583391229304 0.34705714191344517 0.3906249999999991
    vertex -0.15849364905389152 0.25 0.3906249999999991
  endloop
endfacet
facet normal -2.7755575615628914e-15 0.0 1.0
  outer loop
    vertex -0.14571583391229304 0.34705714191344517 0.3906249999999991
    vertex -0.14571583391229126 0.1529428580865546 0.3906249999999991
    vertex -0.10825317547305602 0.4375 0.3906249999999991
  endloop
endfacet
facet normal -2.7755575615628914e-15 0.0 1.0
  outer loop
    vertex -0.10825317547305602 0.4375 0.3906249999999991
    vertex -0.14571583391229126 0.1529428580865546 0.3906249999999991
    vertex -0.10825317547305602 0.0625 0.3906249999999991
  endloop
endfacet
facet normal -2.7755575615628914e-15 0.0 1.0
  outer loop
    vertex -0.10825317547305602 0.4375 0.3906249999999991
    vertex -0.10825317547305602 0.0625 0.3906249999999991
    vertex -0.0486586919988472 -0.015165042944955243 0.39062499999999956
  endloop
endfacet
facet normal -2.7755575615628914e-15 0.0 1.0
  outer loop
    vertex -0.10825317547305602 0.4375 0.3906249999999991
    vertex -0.0486586919988472 -0.015165042944955243 0.39062499999999956
    vertex -0.0486586919988472 0.5151650429449552 0.39062499999999956
  endloop
endfacet
facet normal -2.7755575615628914e-15 0.0 1.0
  outer loop
    vertex -0.0486586919988472 0.5151650429449552 0.39062499999999956
    vertex -0.0486586919988472 -0.015165042944955243 0.39062499999999956
    vertex 0.029006350946108483 -0.0747595264191645 0.39062499999999956
  endloop
endfacet
facet normal -2.7755575615628914e-15 0.0 1.0
  outer loop
    vertex -0.0486586919988472 0.5151650429449552 0.39062499999999956
    vertex 0.029006350946108483 -0.0747595264191645 0.39062499999999956
    vertex 0.029006350946108483 0.5747595264191645 0.39062499999999956
  endloop
endfacet
facet normal -2.7755575615628914e-15 0.0 1.0
  outer loop
    vertex 0.029006350946108483 0.5747595264191645 0.39062499999999956
    vertex 0.029006350946108483 -0.0747595264191645 0.39062499999999956
    vertex 0.11944920903266265 -0.11222218485840063 0.390625
  endloop
endfacet
facet normal -2.7755575615628914e-15 0.0 1.0
  outer loop
    vertex 0.029006350946108483 0.5747595264191645 0.39062499999999956
    vertex 0.11944920903266265 -0.11222218485840063 0.390625
    vertex 0.11944920903266265 0.6122221848584006 0.390625
  endloop
endfacet
facet normal -2.7755575615628914e-15 0.0 1.0
  outer loop
    vertex 0.11944920903266265 0.6122221848584006 0.390625
    vertex 0.11944920903266265 -0.11222218485840063 0.390625
    vertex 0.21650635094610848 -0.125 0.390625
  endloop
endfacet
facet normal -2.7755575615628914e-15 0.0 1.0
  outer loop
    vertex 0.11944920903266265 0.6122221848584006 0.390625
    vertex 0.21650635094610848 -0.125 0.390625
    vertex 0.21650635094610848 0.625 0.390625
  endloop
endfacet
facet normal -2.7755575615628914e-15 0.0 1.0
  outer loop
    vertex 0.21650635094610848 0.625 0.390625
    vertex 0.21650635094610848 -0.125 0.390625
    vertex 0.3135634928595543 -0.11222218485840063 0.39062500000000044
  endloop
endfacet
facet normal -2.7755575615628914e-15 0.0 1.0
  outer loop
    vertex 0.21650635094610848 0.625 0.390625
    vertex 0.3135634928595543 -0.11222218485840063 0.39062500000000044
    vertex 0.3135634928595543 0.6122221848584006 0.39062500000000044
  endloop
endfacet
facet normal -2.7755575615628914e-15 0.0 1.0
  outer loop
    vertex 0.3135634928595543 0.6122221848584006 0.39062500000000044
    vertex 0.3135634928595543 -0.11222218485840063 0.39062500000000044
    vertex 0.4040063509461085 -0.0747595264191645 0.390625
  endloop
endfacet
facet normal -2.7755575615628914e-15 0.0 1.0
  outer loop
    vertex 0.3135634928595543 0.6122221848584006 0.39062500000000044
    vertex 0.4040063509461085 -0.0747595264191645 0.390625
    vertex 0.4040063509461085 0.5747595264191645 0.390625
  endloop
endfacet
facet normal -2.7755575615628914e-15 0.0 1.0
  outer loop
    vertex 0.4040063509461085 0.5747595264191645 0.390625
    vertex 0.4040063509461085 -0.0747595264191645 0.390625
    vertex 0.48167139389106417 -0.015165042944955243 0.3906250000000009
  endloop
endfacet
facet normal -2.7755575615628914e-15 0.0 1.0
  outer loop
    vertex 0.4040063509461085 0.5747595264191645 0.390625
    vertex 0.48167139389106417 -0.015165042944955243 0.3906250000000009
    vertex 0.48167139389106417 0.5151650429449552 0.3906250000000009
  endloop
endfacet
facet normal -2.7755575615628914e-15 0.0 1.0
  outer loop
    vertex 0.48167139389106417 0.5151650429449552 0.3906250000000009
    vertex 0.48167139389106417 -0.015165042944955243 0.3906250000000009
    vertex 0.541265877365273 0.0625 0.3906250000000009
  endloop
endfacet
facet normal -2.7755575615628914e-15 0.0 1.0
  outer loop
    vertex 0.48167139389106417 0.5151650429449552 0.3906250000000009
    vertex 0.541265877365273 0.0625 0.3906250000000009
    vertex 0.541265877365273 0.4375000000000002 0.3906250000000009
  endloop
endfacet
facet normal -2.7755575615628914e-15 0.0 1.0
  outer loop
    vertex 0.541265877365273 0.4375000000000002 0.3906250000000009
    vertex 0.541265877365273 0.0625 0.3906250000000009
    vertex 0.57872853580451 0.1529428580865546 0.39062500000000044
  endloop
endfacet
facet normal -2.7755575615628914e-15 0.0 1.0
  outer loop
    vertex 0.541265877365273 0.4375000000000002 0.3906250000000009
    vertex 0.57872853580451 0.1529428580865546 0.39062500000000044
    vertex 0.5787285358045082 0.3470571419134456 0.39062500000000044
  endloop
endfacet
facet normal -2.7755575615628914e-15 0.0 1.0
  outer loop
    vertex 0.5787285358045082 0.3470571419134456 0.39062500000000044
    vertex 0.57872853580451 0.1529428580865546 0.39062500000000044
    vertex 0.5915063509461085 0.25 0.39062500000000133
  endloop
endfacet
facet normal 2.4804058022116082e-15 -9.727668406239523e-17 -1.0
  outer loop
    vertex -0.054126587736522506 0.2812499999999999 -1.4843750000000004
    vertex -0.054126587736522555 0.21874999999999997 -1.4843750000000004
    vertex -0.07216878364869833 0.24999999999999994 -1.4843750000000007
  endloop
endfacet
facet normal 2.4804058022116082e-15 -9.727668406239523e-17 -1.0
  outer loop
    vertex -0.054126587736522555 0.21874999999999997 -1.4843750000000004
    vertex -0.054126587736522506 0.2812499999999999 -1.4843750000000004
    vertex 0.05412658773653209 0.031250000000000076 -1.4843750000000002
  endloop
endfacet
facet normal 2.4804058022116082e-15 -9.727668406239523e-17 -1.0
  outer loop
    vertex 0.05412658773653209 0.031250000000000076 -1.4843750000000002
    vertex -0.054126587736522506 0.2812499999999999 -1.4843750000000004
    vertex 0.054126587736532415 0.4687499999999999 -1.4843750000000004
  endloop
endfacet
facet normal 2.4804058022116082e-15 -9.727668406239523e-17 -1.0
  outer loop
    vertex 0.05412658773653209 0.031250000000000076 -1.4843750000000002
    vertex 0.054126587736532415 0.4687499999999999 -1.4843750000000004
    vertex 0.07216878364870793 -5.921189464667601e-17 -1.4843750000000004
  endloop
endfacet
facet normal 2.4804058022116082e-15 -9.727668406239523e-17 -1.0
  outer loop
    vertex 0.07216878364870793 -5.921189464667601e-17 -1.4843750000000004
    vertex 0.054126587736532415 0.4687499999999999 -1.4843750000000004
    vertex 0.07216878364870818 0.4999999999999998 -1.4843750000000004
  endloop
endfacet
facet normal 2.4804058022116082e-15 -9.727668406239523e-17 -1.0
  outer loop
    vertex 0.07216878364870793 -5.921189464667601e-17 -1.4843750000000004
    vertex 0.07216878364870818 0.4999999999999998 -1.4843750000000004
    vertex 0.10825317547305968 -6.615078855058327e-17 -1.484375
  endloop
endfacet
facet normal 2.4804058022116082e-15 -9.727668406239523e-17 -1.0
  outer loop
    vertex 0.10825317547305968 -6.615078855058327e-17 -1.484375
    vertex 0.07216878364870818 0.4999999999999998 -1.4843750000000004
    vertex 0.10825317547305968 0.4999999999999998 -1.4843750000000002
  endloop
endfacet
facet normal 2.4804058022116082e-15 -9.727668406239523e-17 -1.0
  outer loop
    vertex 0.10825317547305968 -6.615078855058327e-17 -1.484375
    vertex 0.10825317547305968 0.4999999999999998 -1.4843750000000002
    vertex 0.21650635094611465 0.4999999999999998 -1.484375
  endloop
endfacet
facet normal 2.4804058022116082e-15 -9.727668406239523e-17 -1.0
  outer loop
    vertex 0.10825317547305968 -6.615078855058327e-17 -1.484375
    vertex 0.21650635094611465 0.4999999999999998 -1.484375
    vertex 0.21650635094611462 -1.1472304587793386e-16 -1.484375
  endloop
endfacet
facet normal 2.4804058022116082e-15 -9.727668406239523e-17 -1.0
  outer loop
    vertex 0.21650635094611462 -1.1472304587793386e-16 -1.484375
    vertex 0.21650635094611465 0.4999999999999998 -1.484375
    vertex 0.32475952641916944 -1.6329530320528444e-16 -1.4843749999999996
  endloop
endfacet
facet normal 2.4804058022116082e-15 -9.727668406239523e-17 -1.0
  outer loop
    vertex 0.32475952641916944 -1.6329530320528444e-16 -1.4843749999999996
    vertex 0.21650635094611465 0.4999999999999998 -1.484375
    vertex 0.3247595264191695 0.4999999999999997 -1.4843749999999996
  endloop
endfacet
facet normal 2.4804058022116082e-15 -9.727668406239523e-17 -1.0
  outer loop
    vertex 0.32475952641916944 -1.6329530320528444e-16 -1.4843749999999996
    vertex 0.3247595264191695 0.4999999999999997 -1.4843749999999996
    vertex 0.360843918243521 -1.7023419710919167e-16 -1.4843749999999996
  endloop
endfacet
facet normal 2.4804058022116082e-15 -9.727668406239523e-17 -1.0
  outer loop
    vertex 0.360843918243521 -1.7023419710919167e-16 -1.4843749999999996
    vertex 0.3247595264191695 0.4999999999999997 -1.4843749999999996
    vertex 0.3608439182435211 0.4999999999999997 -1.4843749999999996
  endloop
endfacet
facet normal 2.4804058022116082e-15 -9.727668406239523e-17 -1.0
  outer loop
    vertex 0.360843918243521 -1.7023419710919167e-16 -1.4843749999999996
    vertex 0.3608439182435211 0.4999999999999997 -1.4843749999999996
    vertex 0.37888611415569684 0.031249999999999827 -1.4843749999999996
  endloop
endfacet
facet normal 2.4804058022116082e-15 -9.727668406239523e-17 -1.0
  outer loop
    vertex 0.37888611415569684 0.031249999999999827 -1.4843749999999996
    vertex 0.3608439182435211 0.4999999999999997 -1.4843749999999996
    vertex 0.37888611415569684 0.4687499999999998 -1.4843749999999996
  endloop
endfacet
facet normal 2.4804058022116082e-15 -9.727668406239523e-17 -1.0
  outer loop
    vertex 0.37888611415569684 0.031249999999999827 -1.4843749999999996
    vertex 0.37888611415569684 0.4687499999999998 -1.4843749999999996
    vertex 0.48713928962875164 0.2812499999999997 -1.4843749999999991
  endloop
endfacet
facet normal 2.4804058022116082e-15 -9.727668406239523e-17 -1.0
  outer loop
    vertex 0.37888611415569684 0.031249999999999827 -1.4843749999999996
    vertex 0.48713928962875164 0.2812499999999997 -1.4843749999999991
    vertex 0.48713928962875164 0.21874999999999975 -1.4843749999999991
  endloop
endfacet
facet normal 2.4804058022116082e-15 -9.727668406239523e-17 -1.0
  outer loop
    vertex 0.48713928962875164 0.21874999999999975 -1.4843749999999991
    vertex 0.48713928962875164 0.2812499999999997 -1.4843749999999991
    vertex 0.5051814855409275 0.24999999999999978 -1.4843749999999993
  endloop
endfacet
facet normal 0.8660254037844387 -0.5000000000000002 2.193304825234235e-15
  outer loop
    vertex 0.37888611415569684 0.031249999999999827 -1.4843749999999996
    vertex 0.3608439182435167 0.0 0.2656250000000004
    vertex 0.360843918243521 -1.7023419710919167e-16 -1.4843749999999996
  endloop
endfacet
facet normal 0.8660254037844387 -0.5000000000000002 2.193304825234235e-15
  outer loop
    vertex 0.3608439182435167 0.0 0.2656250000000004
    vertex 0.37888611415569684 0.031249999999999827 -1.4843749999999996
    vertex 0.3788861141556925 0.031249999999999997 0.26562500000000056
  endloop
endfacet
facet normal 0.8660254037844387 -0.5000000000000002 2.193304825234235e-15
  outer loop
    vertex 0.3788861141556925 0.031249999999999997 0.26562500000000056
    vertex 0.37888611415569684 0.031249999999999827 -1.4843749999999996
    vertex 0.48713928962875164 0.21874999999999975 -1.4843749999999991
  endloop
endfacet
facet normal 0.8660254037844387 -0.5000000000000002 2.193304825234235e-15
  outer loop
    vertex 0.3788861141556925 0.031249999999999997 0.26562500000000056
    vertex 0.48713928962875164 0.21874999999999975 -1.4843749999999991
    vertex 0.4871392896287473 0.21874999999999992 0.2656250000000008
  endloop
endfacet
facet normal 0.8660254037844387 -0.5000000000000002 2.193304825234235e-15
  outer loop
    vertex 0.4871392896287473 0.21874999999999992 0.2656250000000008
    vertex 0.48713928962875164 0.21874999999999975 -1.4843749999999991
    vertex 0.5051814855409275 0.24999999999999978 -1.4843749999999993
  endloop
endfacet
facet normal 0.8660254037844387 -0.5000000000000002 2.193304825234235e-15
  outer loop
    vertex 0.4871392896287473 0.21874999999999992 0.2656250000000008
    vertex 0.5051814855409275 0.24999999999999978 -1.4843749999999993
    vertex 0.5051814855409231 0.24999999999999994 0.2656250000000007
  endloop
endfacet
facet normal -4.0766808951331544e-16 -1.0 9.727668406239421e-17
  outer loop
    vertex 0.32475952641916944 -1.6329530320528444e-16 -1.4843749999999996
    vertex 0.10825317547305968 -6.615078855058327e-17 -1.484375
    vertex 0.21650635094611462 -1.1472304587793386e-16 -1.484375
  endloop
endfacet
facet normal -4.0766808951331544e-16 -1.0 9.727668406239421e-17
  outer loop
    vertex 0.3608439182435167 0.0 0.2656250000000004
    vertex 0.32475952641916944 -1.6329530320528444e-16 -1.4843749999999996
    vertex 0.360843918243521 -1.7023419710919167e-16 -1.4843749999999996
  endloop
endfacet
facet normal -4.0766808951331544e-16 -1.0 9.727668406239421e-17
  outer loop
    vertex 0.32475952641916944 -1.6329530320528444e-16 -1.4843749999999996
    vertex 0.3608439182435167 0.0 0.2656250000000004
    vertex 0.0721687836487036 1.1102230246251565e-16 0.26562499999999967
  endloop
endfacet
facet normal -4.0766808951331544e-16 -1.0 9.727668406239421e-17
  outer loop
    vertex 0.0721687836487036 1.1102230246251565e-16 0.26562499999999967
    vertex 0.3608439182435167 0.0 0.2656250000000004
    vertex 0.10825317547305535 1.040834085586084e-16 0.2656249999999999
  endloop
endfacet
facet normal -4.0766808951331544e-16 -1.0 9.727668406239421e-17
  outer loop
    vertex 0.10825317547305535 1.040834085586084e-16 0.2656249999999999
    vertex 0.3608439182435167 0.0 0.2656250000000004
    vertex 0.21650635094611026 5.55111512312578e-17 0.2656250000000001
  endloop
endfacet
facet normal -4.0766808951331544e-16 -1.0 9.727668406239421e-17
  outer loop
    vertex 0.21650635094611026 5.55111512312578e-17 0.2656250000000001
    vertex 0.3608439182435167 0.0 0.2656250000000004
    vertex 0.3247595264191651 6.938893903907216e-18 0.2656250000000004
  endloop
endfacet
facet normal -4.0766808951331544e-16 -1.0 9.727668406239421e-17
  outer loop
    vertex 0.10825317547305968 -6.615078855058327e-17 -1.484375
    vertex 0.0721687836487036 1.1102230246251565e-16 0.26562499999999967
    vertex 0.07216878364870793 -5.921189464667601e-17 -1.4843750000000004
  endloop
endfacet
facet normal -4.0766808951331544e-16 -1.0 9.727668406239421e-17
  outer loop
    vertex 0.0721687836487036 1.1102230246251565e-16 0.26562499999999967
    vertex 0.10825317547305968 -6.615078855058327e-17 -1.484375
    vertex 0.32475952641916944 -1.6329530320528444e-16 -1.4843749999999996
  endloop
endfacet
facet normal -0.8660254037844388 -0.4999999999999996 -2.0991649397770094e-15
  outer loop
    vertex 0.0721687836487036 1.1102230246251565e-16 0.26562499999999967
    vertex 0.05412658773653209 0.031250000000000076 -1.4843750000000002
    vertex 0.07216878364870793 -5.921189464667601e-17 -1.4843750000000004
  endloop
endfacet
facet normal -0.8660254037844388 -0.4999999999999996 -2.0991649397770094e-15
  outer loop
    vertex 0.05412658773653209 0.031250000000000076 -1.4843750000000002
    vertex 0.0721687836487036 1.1102230246251565e-16 0.26562499999999967
    vertex 0.054126587736527745 0.03125000000000024 0.2656249999999997
  endloop
endfacet
facet normal -0.8660254037844388 -0.4999999999999996 -2.0991649397770094e-15
  outer loop
    vertex 0.05412658773653209 0.031250000000000076 -1.4843750000000002
    vertex 0.054126587736527745 0.03125000000000024 0.2656249999999997
    vertex -0.054126587736522555 0.21874999999999997 -1.4843750000000004
  endloop
endfacet
facet normal -0.8660254037844388 -0.4999999999999996 -2.0991649397770094e-15
  outer loop
    vertex -0.054126587736522555 0.21874999999999997 -1.4843750000000004
    vertex 0.054126587736527745 0.03125000000000024 0.2656249999999997
    vertex -0.0541265877365269 0.21875000000000014 0.26562499999999944
  endloop
endfacet
facet normal -0.8660254037844388 -0.4999999999999996 -2.0991649397770094e-15
  outer loop
    vertex -0.054126587736522555 0.21874999999999997 -1.4843750000000004
    vertex -0.0541265877365269 0.21875000000000014 0.26562499999999944
    vertex -0.07216878364869833 0.24999999999999994 -1.4843750000000007
  endloop
endfacet
facet normal -0.8660254037844388 -0.4999999999999996 -2.0991649397770094e-15
  outer loop
    vertex -0.07216878364869833 0.24999999999999994 -1.4843750000000007
    vertex -0.0541265877365269 0.21875000000000014 0.26562499999999944
    vertex -0.07216878364870266 0.2500000000000001 0.2656249999999993
  endloop
endfacet
facet normal -0.8660254037844385 0.5000000000000003 -2.20151362485964e-15
  outer loop
    vertex -0.07216878364870266 0.2500000000000001 0.2656249999999993
    vertex -0.054126587736522506 0.2812499999999999 -1.4843750000000004
    vertex -0.07216878364869833 0.24999999999999994 -1.4843750000000007
  endloop
endfacet
facet normal -0.8660254037844385 0.5000000000000003 -2.20151362485964e-15
  outer loop
    vertex -0.054126587736522506 0.2812499999999999 -1.4843750000000004
    vertex -0.07216878364870266 0.2500000000000001 0.2656249999999993
    vertex -0.05412658773652685 0.2812500000000001 0.26562499999999944
  endloop
endfacet
facet normal -0.8660254037844385 0.5000000000000003 -2.20151362485964e-15
  outer loop
    vertex -0.054126587736522506 0.2812499999999999 -1.4843750000000004
    vertex -0.05412658773652685 0.2812500000000001 0.26562499999999944
    vertex 0.054126587736532415 0.4687499999999999 -1.4843750000000004
  endloop
endfacet
facet normal -0.8660254037844385 0.5000000000000003 -2.20151362485964e-15
  outer loop
    vertex 0.054126587736532415 0.4687499999999999 -1.4843750000000004
    vertex -0.05412658773652685 0.2812500000000001 0.26562499999999944
    vertex 0.05412658773652807 0.4687500000000001 0.26562499999999967
  endloop
endfacet
facet normal -0.8660254037844385 0.5000000000000003 -2.20151362485964e-15
  outer loop
    vertex 0.054126587736532415 0.4687499999999999 -1.4843750000000004
    vertex 0.05412658773652807 0.4687500000000001 0.26562499999999967
    vertex 0.07216878364870818 0.4999999999999998 -1.4843750000000004
  endloop
endfacet
facet normal -0.8660254037844385 0.5000000000000003 -2.20151362485964e-15
  outer loop
    vertex 0.07216878364870818 0.4999999999999998 -1.4843750000000004
    vertex 0.05412658773652807 0.4687500000000001 0.26562499999999967
    vertex 0.07216878364870385 0.5 0.2656249999999996
  endloop
endfacet
facet normal 2.153718208749594e-16 1.0 -1.1102230246251512e-16
  outer loop
    vertex 0.07216878364870385 0.5 0.2656249999999996
    vertex 0.10825317547305968 0.4999999999999998 -1.4843750000000002
    vertex 0.07216878364870818 0.4999999999999998 -1.4843750000000004
  endloop
endfacet
facet normal 2.153718208749594e-16 1.0 -1.1102230246251512e-16
  outer loop
    vertex 0.10825317547305968 0.4999999999999998 -1.4843750000000002
    vertex 0.07216878364870385 0.5 0.2656249999999996
    vertex 0.21650635094611465 0.4999999999999998 -1.484375
  endloop
endfacet
facet normal 2.153718208749594e-16 1.0 -1.1102230246251512e-16
  outer loop
    vertex 0.21650635094611465 0.4999999999999998 -1.484375
    vertex 0.07216878364870385 0.5 0.2656249999999996
    vertex 0.3247595264191695 0.4999999999999997 -1.4843749999999996
  endloop
endfacet
facet normal 2.153718208749594e-16 1.0 -1.1102230246251512e-16
  outer loop
    vertex 0.3247595264191695 0.4999999999999997 -1.4843749999999996
    vertex 0.07216878364870385 0.5 0.2656249999999996
    vertex 0.3608439182435211 0.4999999999999997 -1.4843749999999996
  endloop
endfacet
facet normal 2.153718208749594e-16 1.0 -1.1102230246251512e-16
  outer loop
    vertex 0.3608439182435211 0.4999999999999997 -1.4843749999999996
    vertex 0.07216878364870385 0.5 0.2656249999999996
    vertex 0.36084391824351675 0.49999999999999994 0.26562500000000033
  endloop
endfacet
facet normal 2.153718208749594e-16 1.0 -1.1102230246251512e-16
  outer loop
    vertex 0.36084391824351675 0.49999999999999994 0.26562500000000033
    vertex 0.07216878364870385 0.5 0.2656249999999996
    vertex 0.10825317547305535 0.5 0.26562499999999983
  endloop
endfacet
facet normal 2.153718208749594e-16 1.0 -1.1102230246251512e-16
  outer loop
    vertex 0.36084391824351675 0.49999999999999994 0.26562500000000033
    vertex 0.10825317547305535 0.5 0.26562499999999983
    vertex 0.2165063509461103 0.5 0.2656250000000001
  endloop
endfacet
facet normal 2.153718208749594e-16 1.0 -1.1102230246251512e-16
  outer loop
    vertex 0.36084391824351675 0.49999999999999994 0.26562500000000033
    vertex 0.2165063509461103 0.5 0.2656250000000001
    vertex 0.32475952641916517 0.49999999999999994 0.26562500000000033
  endloop
endfacet
facet normal 0.8660254037844389 0.49999999999999983 2.094425587103558e-15
  outer loop
    vertex 0.48713928962875164 0.2812499999999997 -1.4843749999999991
    vertex 0.5051814855409231 0.24999999999999994 0.2656250000000007
    vertex 0.5051814855409275 0.24999999999999978 -1.4843749999999993
  endloop
endfacet
facet normal 0.8660254037844389 0.49999999999999983 2.094425587103558e-15
  outer loop
    vertex 0.5051814855409231 0.24999999999999994 0.2656250000000007
    vertex 0.48713928962875164 0.2812499999999997 -1.4843749999999991
    vertex 0.4871392896287473 0.28124999999999994 0.2656250000000008
  endloop
endfacet
facet normal 0.8660254037844389 0.49999999999999983 2.094425587103558e-15
  outer loop
    vertex 0.4871392896287473 0.28124999999999994 0.2656250000000008
    vertex 0.48713928962875164 0.2812499999999997 -1.4843749999999991
    vertex 0.37888611415569684 0.4687499999999998 -1.4843749999999996
  endloop
endfacet
facet normal 0.8660254037844389 0.49999999999999983 2.094425587103558e-15
  outer loop
    vertex 0.4871392896287473 0.28124999999999994 0.2656250000000008
    vertex 0.37888611415569684 0.4687499999999998 -1.4843749999999996
    vertex 0.3788861141556925 0.46875 0.2656250000000005
  endloop
endfacet
facet normal 0.8660254037844389 0.49999999999999983 2.094425587103558e-15
  outer loop
    vertex 0.3788861141556925 0.46875 0.2656250000000005
    vertex 0.37888611415569684 0.4687499999999998 -1.4843749999999996
    vertex 0.3608439182435211 0.4999999999999997 -1.4843749999999996
  endloop
endfacet
facet normal 0.8660254037844389 0.49999999999999983 2.094425587103558e-15
  outer loop
    vertex 0.3788861141556925 0.46875 0.2656250000000005
    vertex 0.3608439182435211 0.4999999999999997 -1.4843749999999996
    vertex 0.36084391824351675 0.49999999999999994 0.26562500000000033
  endloop
endfacet
endsolid PassiveAxel
