%
M48
M72
T01C0.0320
T02C0.0354
T03C0.0400
T04C0.0630
%
T01
X5720Y2220
X5720Y3220
X5720Y4220
X5720Y5220
X5720Y6220
X5720Y7220
X5720Y8220
X8720Y8220
X8720Y7220
X8720Y6220
X8720Y5220
X8720Y4220
X8720Y3220
X8720Y2220
T02
X10720Y1720
X10720Y2720
X13720Y2720
X13720Y1720
X13720Y7720
X13720Y8720
X10720Y8720
X10720Y7720
X3720Y7720
X2720Y7720
X2720Y4720
X3720Y4720
X3720Y3720
X2720Y3720
X2720Y720
X3720Y720
T03
X11720Y4220
X12720Y4220
X13720Y4220
X13720Y6220
X12720Y6220
X11720Y6220
X7720Y9720
X6720Y9720
X4220Y9720
X3220Y9720
X2220Y9720
X1220Y9720
T04
X1220Y1220
X13720Y9720
M30
